<svg xmlns="http://www.w3.org/2000/svg" xmlns:xlink="http://www.w3.org/1999/xlink" viewBox="0 0 954.81 265.28"><defs><style>.cls-1{fill:none;}.cls-2{fill:#4140e6;}.cls-3{clip-path:url(#clip-path);}.cls-4{fill:#fff;stroke:#fff;stroke-miterlimit:10;stroke-width:0.75px;}</style><clipPath id="clip-path"><rect class="cls-1" x="395.58" width="125.66" height="265.28" rx="5"/></clipPath></defs><g id="레이어_2" data-name="레이어 2"><g id="레이어_1-2" data-name="레이어 1"><path d="M81.58,108C77.88,90.77,68.64,83,53,83,34.11,83,23.84,95.29,23.84,125.9V144c0,30.21,10.27,42.94,29.18,42.94,16.23,0,24.86-7.8,28.56-25.06h22.81C99.67,193.72,81.17,207.69,53,207.69c-31.65,0-53-19.11-53-63.7V125.9C0,81.31,21.37,62.2,53,62.2c28.15,0,46.85,15,51.58,45.83Z"/><path d="M213.32,205.84,186,148.3H158.45v57.54H134.62V64.05h48.29c32.67,0,52.19,14.18,52.19,42.33,0,19.52-9.24,32.06-25.68,38l30.2,61.44Zm-32-78.09c20.13,0,30-5.34,30-21.37s-9.87-21.57-30-21.57H158.45v42.94Z"/><path d="M315.22,207.69c-31.65,0-53-19.11-53-63.7V125.9c0-44.59,21.37-63.7,53-63.7,31.85,0,53.22,19.11,53.22,63.7V144C368.44,188.58,347.07,207.69,315.22,207.69ZM286,144c0,30.62,10.27,42.94,29.18,42.94S344.6,174.61,344.6,144V125.9C344.6,95.29,334.12,83,315.22,83S286,95.29,286,125.9Z"/><path d="M642,64.05V84.81H578.86V125.5h56.92V146H578.86v59.8H555V64.05Z"/><path d="M645.89,205.84,695.21,64.05h22.6l49.32,141.79H741.86l-9.66-29.38H681l-9.66,29.38Zm41.71-49.93h37.82L706.51,98.58Z"/><path d="M791.76,64.05h24v22.4h-24Zm1,39.05h22V205.84h-22Z"/><path d="M928.51,205.84,901.18,148.3H873.64v57.54H849.8V64.05h48.29c32.68,0,52.2,14.18,52.2,42.33,0,19.53-9.25,32.06-25.69,38l30.21,61.44Zm-32.06-78.09c20.14,0,30-5.34,30-21.37s-9.86-21.57-30-21.57H873.64v42.94Z"/><rect class="cls-2" x="395.58" width="125.66" height="265.28" rx="5"/><g class="cls-3"><path d="M469.35,66.54c-5.33-9-11.52-14.67-25.55-16C431,49.4,423,54.46,422,64.89c-1.09,11.87,7.83,17.41,24.75,22.78,24.5,7.7,36.59,18.25,34.54,40.55-1.71,18.53-15.69,34.47-45.55,31.72-21.23-2-35.56-9.81-44.53-24.6l17.41-9.83c6.56,9.5,13.5,14.85,27.71,16.16,17.09,1.58,23.18-5.48,24-14.47.91-9.9-4.1-16.53-25.26-23.19-23.45-7.24-35.88-20-33.94-41,1.72-18.71,15.4-33.23,44.53-30.54,19.79,1.82,33,9.75,40.58,24.23Z"/><path d="M468.93,66.8c-5.34-9-11.53-14.67-25.56-16-12.77-1.18-20.85,3.88-21.81,14.31-1.09,11.87,7.83,17.41,24.75,22.78,24.5,7.7,36.59,18.25,34.53,40.55C479.13,147,465.15,163,435.29,160.2c-21.22-2-35.55-9.81-44.53-24.6l17.41-9.83c6.56,9.5,13.51,14.85,27.71,16.16,17.09,1.58,23.19-5.48,24-14.47.91-9.9-4.09-16.59-25.26-23.19-23.44-7.31-35.89-20-33.95-41,1.73-18.71,15.4-33.23,44.54-30.54,19.78,1.82,33,9.75,40.57,24.23Z"/><path d="M468.51,67.06C463.17,58,457,52.39,443,51.1,430.18,49.92,422.1,55,421.14,65.41,420,77.28,429,82.82,445.88,88.19c24.5,7.7,36.59,18.25,34.54,40.55-1.71,18.53-15.69,34.47-45.55,31.72-21.23-2-35.56-9.81-44.53-24.6L407.75,126c6.56,9.5,13.5,14.85,27.71,16.16,17.09,1.58,23.18-5.48,24-14.47.91-9.9-4.08-16.59-25.25-23.19-23.44-7.31-35.89-20-34-41C402,44.78,415.67,30.26,444.8,33c19.79,1.82,33,9.75,40.58,24.23Z"/><path d="M468.08,67.32c-5.34-9-11.53-14.67-25.56-16-12.77-1.18-20.85,3.88-21.81,14.31-1.09,11.87,7.83,17.41,24.75,22.78C470,96.15,482.05,106.7,480,129c-1.71,18.53-15.69,34.47-45.55,31.72-21.22-2-35.55-9.81-44.53-24.6l17.41-9.83c6.56,9.5,13.51,14.85,27.72,16.16,17.08,1.58,23.18-5.48,24-14.47.91-9.9-4.09-16.59-25.26-23.19-23.44-7.31-35.88-20-34-41,1.73-18.71,15.4-33.23,44.54-30.54C464.16,35,477.4,43,485,57.44Z"/><path d="M467.66,67.58c-5.34-9-11.53-14.67-25.56-16-12.77-1.18-20.85,3.88-21.81,14.31-1.1,11.87,7.82,17.41,24.74,22.78,24.51,7.7,36.59,18.25,34.54,40.55C477.86,147.79,463.88,163.73,434,161c-21.23-2-35.56-9.81-44.53-24.6l17.41-9.83c6.56,9.5,13.5,14.85,27.71,16.16,17.09,1.58,23.18-5.48,24-14.47.91-9.9-4.08-16.59-25.25-23.19-23.44-7.31-35.89-20-33.95-41,1.72-18.71,15.4-33.23,44.53-30.54,19.79,1.82,33,9.75,40.58,24.23Z"/><path d="M467.23,67.84c-5.34-9-11.53-14.67-25.56-16-12.77-1.18-20.85,3.88-21.81,14.31C418.77,78.06,427.69,83.6,444.61,89c24.5,7.7,36.59,18.25,34.53,40.55-1.71,18.53-15.69,34.47-45.55,31.72-21.22-2-35.55-9.81-44.53-24.6l17.41-9.83C413,136.31,420,141.66,434.19,143c17.08,1.58,23.18-5.48,24-14.47.91-9.89-4.09-16.59-25.26-23.19-23.43-7.31-35.88-20-33.94-41,1.72-18.71,15.39-33.23,44.53-30.54,19.79,1.82,33,9.75,40.58,24.24Z"/><path d="M466.81,68.1c-5.34-9-11.53-14.67-25.56-16C428.48,51,420.4,56,419.44,66.45c-1.1,11.87,7.82,17.41,24.74,22.78,24.51,7.7,36.59,18.25,34.54,40.55C477,148.31,463,164.25,433.17,161.5c-21.23-2-35.56-9.81-44.53-24.6l17.41-9.83c6.56,9.5,13.51,14.85,27.71,16.16,17.09,1.58,23.18-5.48,24-14.47.91-9.89-4.08-16.59-25.25-23.19-23.44-7.31-35.89-20-33.95-41C400.29,45.82,414,31.3,443.11,34c19.78,1.82,33,9.75,40.57,24.24Z"/><path d="M466.38,68.36c-5.33-9-11.53-14.67-25.55-16C428.05,51.22,420,56.28,419,66.71c-1.09,11.87,7.83,17.41,24.75,22.78,24.5,7.7,36.59,18.25,34.53,40.55-1.7,18.53-15.69,34.47-45.55,31.72-21.22-2-35.55-9.81-44.53-24.6l17.41-9.82c6.56,9.49,13.51,14.84,27.72,16.15,17.09,1.58,23.18-5.48,24-14.47.91-9.89-4.09-16.59-25.26-23.19-23.43-7.31-35.88-20-33.94-41,1.72-18.71,15.39-33.23,44.53-30.54,19.79,1.82,33,9.76,40.58,24.24Z"/><path d="M466,68.62c-5.34-9-11.53-14.67-25.56-16-12.77-1.18-20.85,3.88-21.81,14.31-1.1,11.87,7.82,17.41,24.74,22.78,24.51,7.7,36.59,18.25,34.54,40.55-1.71,18.53-15.69,34.47-45.55,31.72-21.23-2-35.56-9.81-44.53-24.6l17.41-9.82c6.56,9.49,13.51,14.84,27.71,16.15,17.09,1.58,23.18-5.48,24-14.47.91-9.89-4.08-16.59-25.25-23.19-23.44-7.31-35.89-20-33.95-41,1.73-18.71,15.4-33.23,44.54-30.54,19.78,1.82,33,9.76,40.57,24.24Z"/><path d="M465.53,68.88c-5.33-9-11.53-14.67-25.55-16-12.78-1.18-20.86,3.88-21.82,14.32C417.07,79.11,426,84.64,442.91,90c24.5,7.7,36.59,18.25,34.53,40.55-1.7,18.53-15.69,34.47-45.55,31.72-21.22-2-35.55-9.81-44.53-24.6l17.41-9.82c6.57,9.49,13.51,14.84,27.72,16.15,17.09,1.58,23.18-5.48,24-14.47.91-9.89-4.09-16.59-25.26-23.19-23.43-7.31-35.88-20-33.94-41,1.72-18.7,15.39-33.22,44.53-30.54,19.79,1.82,33,9.76,40.58,24.24Z"/><path d="M465.11,69.14c-5.34-9-11.53-14.67-25.56-16C426.78,52,418.7,57.06,417.74,67.5c-1.1,11.87,7.83,17.4,24.74,22.77C467,98,479.07,108.52,477,130.82c-1.71,18.53-15.69,34.47-45.55,31.72-21.23-2-35.56-9.81-44.53-24.6l17.41-9.82c6.56,9.49,13.51,14.84,27.71,16.15,17.09,1.58,23.19-5.48,24-14.47.92-9.89-4.08-16.59-25.25-23.19-23.44-7.31-35.89-20-33.95-41,1.73-18.7,15.4-33.22,44.54-30.54,19.78,1.82,33,9.76,40.57,24.24Z"/><path d="M464.68,69.4c-5.33-9-11.52-14.67-25.55-16-12.77-1.18-20.86,3.88-21.82,14.32-1.09,11.87,7.83,17.4,24.75,22.77,24.5,7.7,36.59,18.25,34.53,40.55-1.7,18.53-15.69,34.47-45.55,31.72-21.22-2-35.55-9.81-44.53-24.6l17.41-9.82c6.57,9.49,13.51,14.84,27.72,16.15,17.09,1.58,23.18-5.48,24-14.47.91-9.89-4.09-16.59-25.26-23.19-23.43-7.31-35.88-20-33.94-41,1.72-18.7,15.39-33.22,44.53-30.54,19.79,1.82,33,9.76,40.58,24.24Z"/><path d="M464.26,69.66c-5.34-9-11.53-14.67-25.56-16-12.77-1.18-20.85,3.88-21.81,14.32-1.1,11.87,7.83,17.4,24.74,22.77,24.51,7.7,36.59,18.25,34.54,40.55-1.71,18.53-15.69,34.47-45.55,31.72-21.22-2-35.56-9.81-44.53-24.6l17.41-9.82c6.56,9.49,13.51,14.84,27.71,16.15,17.09,1.58,23.19-5.48,24-14.47.92-9.89-4.08-16.58-25.25-23.19-23.44-7.31-35.89-20-34-41,1.73-18.7,15.4-33.22,44.54-30.54,19.78,1.82,33,9.76,40.57,24.24Z"/><path d="M463.83,69.92c-5.33-9-11.52-14.67-25.55-16-12.77-1.18-20.85,3.88-21.82,14.32-1.09,11.87,7.83,17.4,24.75,22.77,24.5,7.7,36.59,18.25,34.53,40.55-1.7,18.53-15.69,34.47-45.54,31.72-21.23-2-35.56-9.81-44.54-24.6l17.42-9.82c6.56,9.49,13.5,14.84,27.71,16.15,17.09,1.58,23.18-5.48,24-14.47.91-9.89-4.08-16.58-25.26-23.19-23.43-7.31-35.88-20-33.94-41,1.72-18.7,15.39-33.22,44.53-30.54,19.79,1.82,33,9.76,40.58,24.24Z"/><path d="M463.41,70.18c-5.34-9-11.53-14.67-25.56-16C425.08,53,417,58.1,416,68.54c-1.09,11.87,7.83,17.4,24.74,22.77,24.51,7.7,36.6,18.25,34.54,40.55-1.71,18.53-15.69,34.47-45.55,31.72-21.22-2-35.55-9.81-44.53-24.6l17.41-9.82c6.56,9.49,13.51,14.84,27.71,16.15,17.09,1.58,23.19-5.48,24-14.47.91-9.89-4.09-16.58-25.26-23.19-23.44-7.31-35.89-20-33.95-41,1.73-18.7,15.4-33.22,44.54-30.54,19.78,1.82,33,9.76,40.57,24.24Z"/><path d="M463,70.44c-5.33-9-11.52-14.67-25.55-16-12.77-1.18-20.85,3.88-21.82,14.32-1.09,11.87,7.83,17.4,24.75,22.77,24.5,7.7,36.59,18.25,34.54,40.55-1.71,18.53-15.69,34.47-45.55,31.72-21.23-2-35.56-9.81-44.53-24.6l17.41-9.82c6.56,9.49,13.5,14.84,27.71,16.15,17.09,1.58,23.18-5.48,24-14.47.91-9.89-4.08-16.58-25.26-23.19-23.43-7.31-35.88-20-33.94-41,1.72-18.7,15.4-33.22,44.53-30.54,19.79,1.82,33,9.76,40.58,24.24Z"/><path d="M462.56,70.7c-5.34-9-11.53-14.67-25.56-16-12.77-1.18-20.85,3.88-21.81,14.32-1.09,11.87,7.83,17.4,24.75,22.77,24.5,7.7,36.59,18.25,34.53,40.55-1.71,18.53-15.69,34.47-45.55,31.72-21.22-2-35.55-9.81-44.53-24.6l17.41-9.82c6.56,9.49,13.51,14.84,27.71,16.15,17.09,1.58,23.19-5.48,24-14.47.91-9.89-4.09-16.58-25.26-23.19-23.44-7.31-35.89-20-33.95-41,1.73-18.7,15.4-33.22,44.54-30.54,19.78,1.82,33,9.76,40.57,24.24Z"/><path d="M462.14,71c-5.34-9-11.53-14.67-25.56-16-12.77-1.18-20.85,3.88-21.81,14.32-1.1,11.87,7.82,17.4,24.74,22.77,24.5,7.7,36.59,18.25,34.54,40.55-1.71,18.53-15.69,34.47-45.55,31.72-21.23-2-35.56-9.81-44.53-24.6l17.41-9.82c6.56,9.49,13.5,14.84,27.71,16.15,17.09,1.58,23.18-5.48,24-14.47.91-9.89-4.08-16.58-25.25-23.19-23.44-7.31-35.89-20-34-41,1.72-18.7,15.4-33.22,44.53-30.54,19.79,1.83,33,9.76,40.58,24.24Z"/><path d="M461.71,71.22c-5.34-9-11.53-14.67-25.56-16-12.77-1.17-20.85,3.88-21.81,14.32-1.09,11.87,7.83,17.4,24.75,22.77,24.5,7.7,36.59,18.25,34.53,40.55-1.71,18.53-15.69,34.47-45.55,31.72-21.22-2-35.55-9.81-44.53-24.6L401,130.2c6.56,9.49,13.51,14.84,27.72,16.15,17.08,1.58,23.18-5.48,24-14.47.91-9.89-4.09-16.58-25.26-23.19-23.44-7.31-35.88-20-33.95-41C395.2,49,408.87,34.43,438,37.11c19.78,1.83,33,9.76,40.58,24.24Z"/><path d="M461.29,71.48c-5.34-9-11.53-14.66-25.56-16C423,54.35,414.88,59.4,413.92,69.84c-1.1,11.87,7.82,17.41,24.74,22.77,24.51,7.7,36.59,18.25,34.54,40.55-1.71,18.53-15.69,34.47-45.55,31.72-21.23-2-35.56-9.81-44.53-24.6l17.41-9.82c6.56,9.49,13.5,14.85,27.71,16.15,17.09,1.58,23.18-5.48,24-14.47.91-9.89-4.08-16.58-25.25-23.19-23.44-7.31-35.89-20-33.95-41,1.72-18.7,15.4-33.22,44.53-30.54,19.79,1.83,33,9.76,40.58,24.24Z"/><path d="M460.86,71.74c-5.34-9-11.53-14.66-25.56-16-12.77-1.17-20.85,3.88-21.81,14.32C412.4,82,421.32,87.51,438.24,92.87c24.5,7.7,36.59,18.25,34.53,40.55-1.71,18.53-15.69,34.47-45.55,31.72-21.22-2-35.55-9.81-44.53-24.6l17.41-9.82c6.56,9.49,13.51,14.85,27.72,16.15,17.08,1.58,23.18-5.48,24-14.47.91-9.89-4.09-16.58-25.26-23.19-23.43-7.31-35.88-20-33.94-41C394.35,49.47,408,35,437.16,37.63c19.79,1.83,33,9.76,40.58,24.24Z"/><path d="M460.44,72c-5.34-9-11.53-14.66-25.56-16-12.77-1.17-20.85,3.88-21.81,14.32-1.1,11.87,7.82,17.41,24.74,22.77,24.51,7.7,36.59,18.25,34.54,40.55-1.71,18.53-15.69,34.47-45.55,31.72-21.23-2-35.56-9.81-44.53-24.6L399.68,131c6.56,9.49,13.51,14.85,27.71,16.15,17.09,1.58,23.18-5.48,24-14.47.91-9.89-4.08-16.58-25.25-23.19-23.44-7.31-35.89-20-33.95-41,1.72-18.7,15.4-33.22,44.54-30.54,19.78,1.83,33,9.76,40.57,24.24Z"/><path d="M460,72.26c-5.33-9-11.53-14.66-25.55-16-12.78-1.17-20.86,3.88-21.82,14.32-1.09,11.87,7.83,17.41,24.75,22.77,24.5,7.7,36.59,18.25,34.53,40.55-1.7,18.53-15.69,34.47-45.55,31.72-21.22-1.95-35.55-9.81-44.53-24.6l17.41-9.82c6.56,9.49,13.51,14.85,27.72,16.15,17.09,1.58,23.18-5.48,24-14.47.91-9.89-4.09-16.58-25.26-23.19-23.43-7.31-35.88-20-33.94-41,1.72-18.7,15.39-33.22,44.53-30.54,19.79,1.83,33,9.76,40.58,24.24Z"/><path d="M459.59,72.52c-5.34-9-11.53-14.66-25.56-16-12.77-1.17-20.85,3.88-21.81,14.32C411.12,82.75,420,88.29,437,93.65c24.51,7.7,36.59,18.25,34.54,40.55-1.71,18.53-15.69,34.47-45.55,31.72-21.23-1.95-35.56-9.81-44.53-24.6l17.41-9.82c6.56,9.49,13.51,14.85,27.71,16.16,17.09,1.57,23.18-5.49,24-14.48.91-9.89-4.08-16.58-25.25-23.19-23.44-7.31-35.89-20-33.95-41,1.73-18.7,15.4-33.22,44.54-30.54,19.78,1.83,33,9.76,40.57,24.24Z"/><path d="M459.16,72.78c-5.33-9-11.53-14.66-25.55-16-12.78-1.17-20.86,3.88-21.82,14.32C410.7,83,419.62,88.55,436.54,93.91c24.5,7.7,36.59,18.25,34.53,40.55-1.7,18.53-15.69,34.47-45.55,31.72-21.22-2-35.55-9.81-44.53-24.6l17.41-9.82c6.57,9.49,13.51,14.85,27.72,16.16,17.09,1.57,23.18-5.49,24-14.48.91-9.89-4.09-16.58-25.26-23.19-23.43-7.31-35.88-20-33.94-41,1.72-18.7,15.39-33.22,44.53-30.54,19.79,1.83,33,9.76,40.58,24.24Z"/><path d="M458.74,73c-5.34-9-11.53-14.66-25.56-16C420.41,55.91,412.33,61,411.37,71.4c-1.1,11.87,7.83,17.41,24.74,22.77,24.51,7.7,36.59,18.25,34.54,40.55-1.71,18.53-15.69,34.47-45.55,31.72-21.23-1.95-35.56-9.81-44.53-24.6L398,132c6.56,9.49,13.51,14.85,27.71,16.16,17.09,1.57,23.19-5.49,24-14.48.92-9.89-4.08-16.58-25.25-23.19-23.44-7.31-35.89-20-33.95-41,1.73-18.71,15.4-33.23,44.54-30.55,19.78,1.83,33,9.76,40.57,24.24Z"/><path d="M458.31,73.3c-5.33-9-11.52-14.66-25.55-16C420,56.17,411.9,61.23,410.94,71.66c-1.09,11.87,7.83,17.41,24.75,22.77,24.5,7.7,36.59,18.25,34.53,40.55-1.7,18.53-15.69,34.47-45.55,31.72-21.22-1.95-35.55-9.81-44.53-24.6l17.41-9.82c6.57,9.49,13.51,14.85,27.72,16.16,17.09,1.57,23.18-5.49,24-14.48.91-9.89-4.09-16.58-25.26-23.19-23.43-7.31-35.88-20-33.94-41C391.8,51,405.47,36.51,434.61,39.19c19.79,1.83,33,9.76,40.58,24.24Z"/><path d="M457.89,73.56c-5.34-9-11.53-14.66-25.56-16-12.77-1.17-20.85,3.89-21.81,14.32-1.1,11.87,7.83,17.41,24.74,22.77,24.51,7.7,36.59,18.25,34.54,40.55-1.71,18.53-15.69,34.47-45.55,31.72-21.22-2-35.56-9.81-44.53-24.6l17.41-9.82c6.56,9.49,13.51,14.85,27.71,16.16,17.09,1.57,23.19-5.49,24-14.48.92-9.89-4.08-16.58-25.25-23.19-23.44-7.31-35.89-20-34-41,1.73-18.71,15.4-33.23,44.54-30.55,19.78,1.83,33,9.76,40.57,24.24Z"/><path d="M457.46,73.82c-5.33-9-11.52-14.66-25.55-16-12.77-1.17-20.85,3.89-21.82,14.32C409,84.05,417.92,89.59,434.84,95c24.5,7.7,36.59,18.24,34.53,40.54-1.7,18.53-15.69,34.47-45.55,31.72-21.22-1.95-35.55-9.81-44.53-24.6l17.42-9.82c6.56,9.49,13.5,14.85,27.71,16.16,17.09,1.57,23.18-5.49,24-14.48.91-9.89-4.08-16.58-25.26-23.19-23.43-7.31-35.88-20-33.94-41C391,51.55,404.62,37,433.76,39.71c19.79,1.83,33,9.76,40.58,24.24Z"/><path d="M457,74.08c-5.34-9-11.53-14.66-25.56-16C418.71,57,410.63,62,409.67,72.44c-1.09,11.87,7.83,17.41,24.74,22.78,24.51,7.7,36.6,18.24,34.54,40.54-1.71,18.53-15.69,34.47-45.55,31.72-21.22-1.95-35.55-9.81-44.53-24.6l17.41-9.82c6.56,9.49,13.51,14.85,27.71,16.16,17.09,1.57,23.19-5.49,24-14.48.91-9.89-4.09-16.58-25.26-23.19-23.44-7.31-35.89-20-33.95-41,1.73-18.71,15.4-33.23,44.54-30.55,19.78,1.83,33,9.76,40.57,24.24Z"/><path d="M456.61,74.34c-5.33-9-11.52-14.66-25.55-16-12.77-1.17-20.85,3.89-21.82,14.32-1.09,11.87,7.83,17.41,24.75,22.78,24.5,7.7,36.59,18.24,34.54,40.54-1.71,18.53-15.7,34.47-45.55,31.72-21.23-2-35.56-9.81-44.53-24.6l17.41-9.82c6.56,9.49,13.5,14.85,27.71,16.16,17.09,1.57,23.18-5.49,24-14.48.91-9.89-4.08-16.58-25.26-23.19-23.43-7.31-35.88-20-33.94-41,1.72-18.71,15.4-33.23,44.53-30.55,19.79,1.83,33,9.76,40.58,24.24Z"/><path d="M456.19,74.6c-5.34-9-11.53-14.66-25.56-16-12.77-1.17-20.85,3.89-21.81,14.32-1.09,11.87,7.83,17.41,24.75,22.78,24.5,7.7,36.59,18.24,34.53,40.54-1.71,18.53-15.69,34.47-45.55,31.72-21.22-1.95-35.55-9.81-44.53-24.6l17.41-9.82c6.56,9.49,13.51,14.85,27.71,16.16,17.09,1.57,23.19-5.49,24-14.48.91-9.89-4.09-16.58-25.26-23.18-23.44-7.31-35.89-20-33.95-41,1.73-18.71,15.4-33.23,44.54-30.55,19.78,1.83,33,9.76,40.57,24.24Z"/><path d="M455.76,74.86c-5.33-9-11.52-14.66-25.55-16-12.77-1.17-20.85,3.89-21.81,14.32-1.1,11.87,7.82,17.41,24.74,22.78,24.5,7.7,36.59,18.24,34.54,40.54C466,155.07,452,171,422.13,168.26c-21.23-1.95-35.56-9.8-44.53-24.6L395,133.84c6.56,9.49,13.5,14.85,27.71,16.16,17.09,1.57,23.18-5.49,24-14.48.91-9.89-4.08-16.58-25.25-23.18-23.44-7.31-35.89-20-34-41,1.72-18.71,15.4-33.23,44.53-30.55,19.79,1.83,33,9.76,40.58,24.24Z"/><path d="M455.34,75.12c-5.34-9-11.53-14.66-25.56-16C417,58,408.93,63.05,408,73.48c-1.09,11.87,7.83,17.41,24.75,22.78,24.5,7.7,36.59,18.24,34.53,40.54-1.71,18.53-15.69,34.47-45.55,31.72-21.22-2-35.55-9.8-44.53-24.6l17.41-9.82c6.56,9.49,13.51,14.85,27.72,16.16,17.08,1.57,23.18-5.49,24-14.48.91-9.89-4.09-16.58-25.26-23.18-23.44-7.31-35.88-20-33.95-41,1.73-18.71,15.4-33.23,44.54-30.55,19.78,1.83,33,9.76,40.58,24.24Z"/><path d="M454.92,75.38c-5.34-9-11.53-14.66-25.56-16-12.77-1.17-20.85,3.89-21.81,14.32-1.1,11.87,7.82,17.41,24.74,22.78,24.51,7.7,36.59,18.24,34.54,40.54-1.71,18.53-15.69,34.48-45.55,31.72-21.23-1.95-35.56-9.8-44.53-24.6l17.41-9.82c6.56,9.49,13.5,14.85,27.71,16.16,17.09,1.57,23.18-5.49,24-14.48.91-9.89-4.08-16.58-25.25-23.18-23.44-7.31-35.89-20-33.95-41,1.72-18.71,15.4-33.23,44.53-30.55,19.79,1.83,33,9.76,40.58,24.24Z"/><path d="M454.49,75.64c-5.34-9-11.53-14.66-25.56-16-12.77-1.18-20.85,3.88-21.81,14.31C406,85.87,415,91.41,431.87,96.78c24.5,7.7,36.59,18.24,34.53,40.54-1.71,18.53-15.69,34.48-45.55,31.72-21.22-1.95-35.55-9.8-44.53-24.6l17.41-9.82c6.56,9.49,13.51,14.85,27.72,16.16,17.08,1.57,23.18-5.49,24-14.48.91-9.89-4.09-16.58-25.26-23.18-23.43-7.31-35.88-20-33.94-41,1.72-18.71,15.39-33.23,44.53-30.54,19.79,1.82,33,9.75,40.58,24.23Z"/><path d="M454.07,75.9c-5.34-9-11.53-14.66-25.56-16-12.77-1.18-20.85,3.88-21.81,14.31-1.1,11.87,7.82,17.41,24.74,22.78C456,104.74,468,115.28,466,137.59c-1.71,18.52-15.69,34.47-45.55,31.71-21.23-2-35.56-9.8-44.53-24.6l17.41-9.82c6.56,9.49,13.51,14.85,27.71,16.16,17.09,1.57,23.18-5.48,24-14.48.91-9.89-4.08-16.58-25.25-23.18-23.44-7.31-35.89-20-33.95-41,1.72-18.71,15.4-33.23,44.54-30.54,19.78,1.82,33,9.75,40.57,24.23Z"/><path d="M453.64,76.16c-5.33-9-11.53-14.66-25.55-15.95-12.78-1.18-20.86,3.88-21.82,14.31C405.18,86.39,414.1,91.93,431,97.3c24.5,7.7,36.59,18.24,34.53,40.55-1.7,18.52-15.69,34.47-45.55,31.71-21.22-1.95-35.55-9.8-44.53-24.6l17.41-9.82c6.56,9.49,13.51,14.85,27.72,16.16,17.09,1.57,23.18-5.48,24-14.48.91-9.89-4.09-16.58-25.26-23.18-23.43-7.31-35.88-20-33.94-41,1.72-18.71,15.39-33.23,44.53-30.54,19.79,1.82,33,9.75,40.58,24.23Z"/><path d="M453.22,76.42c-5.34-9-11.53-14.66-25.56-16-12.77-1.18-20.85,3.88-21.81,14.31-1.1,11.87,7.82,17.41,24.74,22.78,24.51,7.7,36.59,18.24,34.54,40.55-1.71,18.52-15.69,34.47-45.55,31.71-21.23-1.95-35.56-9.8-44.53-24.6l17.41-9.82c6.56,9.49,13.51,14.85,27.71,16.16,17.09,1.57,23.18-5.48,24-14.48.91-9.89-4.08-16.58-25.25-23.18-23.44-7.31-35.89-20-33.95-41,1.73-18.71,15.4-33.23,44.54-30.54,19.78,1.82,33,9.75,40.57,24.23Z"/><path d="M452.79,76.68c-5.33-9-11.53-14.66-25.55-16-12.78-1.18-20.86,3.88-21.82,14.31-1.09,11.87,7.83,17.41,24.75,22.78,24.5,7.7,36.59,18.24,34.53,40.55-1.7,18.52-15.69,34.47-45.55,31.71-21.22-2-35.55-9.8-44.53-24.6L392,135.66c6.57,9.49,13.51,14.85,27.72,16.16,17.09,1.57,23.18-5.48,24-14.48.91-9.89-4.09-16.58-25.26-23.18-23.43-7.31-35.88-20-33.94-41,1.72-18.71,15.39-33.23,44.53-30.54,19.79,1.82,33,9.75,40.58,24.23Z"/><path d="M452.37,76.94c-5.34-9-11.53-14.66-25.56-15.95C414,59.81,406,64.87,405,75.3c-1.1,11.87,7.83,17.41,24.74,22.78,24.51,7.7,36.59,18.24,34.54,40.55-1.71,18.52-15.69,34.47-45.55,31.71-21.23-2-35.56-9.8-44.53-24.6l17.41-9.82c6.56,9.49,13.51,14.85,27.71,16.16,17.09,1.57,23.19-5.48,24-14.48.92-9.89-4.1-16.52-25.25-23.18-23.46-7.24-35.89-20-33.95-41,1.73-18.71,15.4-33.23,44.54-30.54,19.78,1.82,33,9.75,40.57,24.23Z"/><path class="cls-4" d="M452.37,76.94c-5.34-9-11.53-14.66-25.56-15.95C414,59.81,406,64.87,405,75.3c-1.1,11.87,7.83,17.41,24.74,22.78,24.51,7.7,36.59,18.24,34.54,40.55-1.71,18.52-15.69,34.47-45.55,31.71-21.23-2-35.56-9.8-44.53-24.6l17.41-9.82c6.56,9.49,13.51,14.85,27.71,16.16,17.09,1.57,23.19-5.48,24-14.48.92-9.89-4.1-16.52-25.25-23.18-23.46-7.24-35.89-20-33.95-41,1.73-18.71,15.4-33.23,44.54-30.54,19.78,1.82,33,9.75,40.57,24.23Z"/><path d="M528.24,133.06c-5.34-9-11.53-14.67-25.56-16-12.77-1.18-20.85,3.88-21.81,14.31-1.1,11.87,7.83,17.41,24.74,22.78,24.51,7.7,36.59,18.25,34.54,40.55-1.71,18.53-15.69,34.47-45.55,31.72-21.22-2-35.56-9.81-44.53-24.6L467.48,192c6.56,9.49,13.51,14.84,27.71,16.15,17.09,1.58,23.19-5.48,24-14.47.92-9.89-4.1-16.52-25.25-23.19-23.46-7.24-35.89-20-33.95-41,1.73-18.71,15.4-33.23,44.54-30.54,19.78,1.82,33,9.76,40.57,24.24Z"/><path d="M527.81,133.32c-5.33-9-11.52-14.67-25.55-16-12.77-1.18-20.85,3.88-21.82,14.32-1.09,11.87,7.83,17.4,24.75,22.77,24.5,7.7,36.59,18.25,34.53,40.55-1.7,18.53-15.69,34.47-45.55,31.72-21.22-2-35.55-9.81-44.53-24.6l17.42-9.82c6.56,9.49,13.5,14.84,27.71,16.15C511.86,210,518,203,518.78,194c.91-9.89-4.08-16.59-25.26-23.19-23.43-7.31-35.88-20-33.94-41,1.72-18.7,15.39-33.22,44.53-30.54,19.79,1.82,33,9.76,40.58,24.24Z"/><path d="M527.39,133.58c-5.34-9-11.53-14.67-25.56-16C489.06,116.44,481,121.5,480,131.94c-1.1,11.87,7.83,17.4,24.74,22.77,24.51,7.7,36.6,18.25,34.54,40.55-1.71,18.53-15.69,34.47-45.55,31.72-21.22-2-35.56-9.81-44.53-24.6l17.41-9.82c6.56,9.49,13.51,14.84,27.71,16.15,17.09,1.58,23.19-5.48,24-14.47.91-9.89-4.09-16.59-25.26-23.19-23.44-7.31-35.89-20-34-41,1.73-18.7,15.4-33.22,44.54-30.54,19.78,1.82,33,9.76,40.57,24.24Z"/><path d="M527,133.84c-5.33-9-11.52-14.67-25.55-16-12.77-1.18-20.85,3.88-21.82,14.32-1.09,11.87,7.83,17.4,24.75,22.77,24.5,7.7,36.59,18.25,34.54,40.55-1.71,18.53-15.7,34.47-45.55,31.72-21.23-2-35.56-9.81-44.53-24.6l17.41-9.82c6.56,9.49,13.5,14.84,27.71,16.15,17.09,1.58,23.18-5.48,24-14.47.91-9.89-4.08-16.59-25.26-23.19-23.43-7.31-35.88-20-33.94-41,1.72-18.7,15.4-33.22,44.53-30.54,19.79,1.82,33,9.76,40.58,24.24Z"/><path d="M526.54,134.1c-5.34-9-11.53-14.67-25.56-16-12.77-1.18-20.85,3.88-21.81,14.32-1.09,11.87,7.83,17.4,24.74,22.77,24.51,7.7,36.6,18.25,34.54,40.55-1.71,18.53-15.69,34.47-45.55,31.72-21.22-2-35.55-9.81-44.53-24.6l17.41-9.82c6.56,9.49,13.51,14.84,27.71,16.15,17.09,1.58,23.19-5.48,24-14.47.91-9.89-4.09-16.58-25.26-23.19-23.44-7.31-35.89-20-33.95-41,1.73-18.7,15.4-33.22,44.54-30.54,19.78,1.82,33,9.76,40.57,24.24Z"/><path d="M526.11,134.36c-5.33-9-11.52-14.67-25.55-16-12.77-1.18-20.85,3.88-21.82,14.32-1.09,11.87,7.83,17.4,24.75,22.77C528,163.19,540.08,173.74,538,196c-1.71,18.53-15.69,34.47-45.55,31.72-21.23-2-35.56-9.81-44.53-24.6l17.41-9.82c6.56,9.49,13.5,14.84,27.71,16.15,17.09,1.58,23.18-5.48,24-14.47.91-9.89-4.08-16.58-25.26-23.19-23.43-7.31-35.88-20-33.94-41,1.72-18.7,15.4-33.22,44.53-30.54,19.79,1.82,33,9.76,40.58,24.24Z"/><path d="M525.69,134.62c-5.34-9-11.53-14.67-25.56-16-12.77-1.18-20.85,3.88-21.81,14.32-1.09,11.87,7.83,17.4,24.75,22.77,24.5,7.7,36.59,18.25,34.53,40.55-1.71,18.53-15.69,34.47-45.55,31.72-21.22-2-35.55-9.81-44.53-24.6l17.41-9.82c6.56,9.49,13.51,14.84,27.72,16.15,17.08,1.58,23.18-5.48,24-14.47.91-9.89-4.09-16.58-25.26-23.19-23.44-7.31-35.88-20-33.95-41,1.73-18.7,15.4-33.22,44.54-30.54,19.78,1.82,33,9.76,40.58,24.24Z"/><path d="M525.27,134.88c-5.34-9-11.53-14.67-25.56-16-12.77-1.18-20.85,3.88-21.81,14.32-1.1,11.87,7.82,17.4,24.74,22.77,24.51,7.7,36.59,18.25,34.54,40.55-1.71,18.53-15.69,34.47-45.55,31.72-21.23-2-35.56-9.81-44.53-24.6l17.41-9.82c6.56,9.49,13.5,14.84,27.71,16.15,17.09,1.58,23.18-5.48,24-14.47.91-9.89-4.08-16.58-25.25-23.19-23.44-7.31-35.89-20-34-41,1.72-18.7,15.4-33.22,44.53-30.54,19.79,1.82,33,9.76,40.58,24.24Z"/><path d="M524.84,135.14c-5.34-9-11.53-14.67-25.56-16-12.77-1.18-20.85,3.88-21.81,14.32-1.09,11.87,7.83,17.4,24.75,22.77,24.5,7.7,36.59,18.25,34.53,40.55-1.71,18.53-15.69,34.47-45.55,31.72-21.22-2-35.55-9.81-44.53-24.6l17.41-9.82c6.56,9.49,13.51,14.84,27.72,16.15,17.08,1.58,23.18-5.48,24-14.47.91-9.89-4.09-16.58-25.26-23.19-23.44-7.31-35.88-20-33.94-41,1.72-18.7,15.39-33.22,44.53-30.54,19.79,1.82,33,9.76,40.58,24.24Z"/><path d="M524.42,135.4c-5.34-9-11.53-14.67-25.56-16-12.77-1.18-20.85,3.88-21.81,14.32-1.1,11.87,7.82,17.4,24.74,22.77,24.51,7.7,36.59,18.25,34.54,40.55-1.71,18.53-15.69,34.47-45.55,31.72-21.23-2-35.56-9.81-44.53-24.6l17.41-9.82c6.56,9.49,13.51,14.84,27.71,16.15,17.09,1.58,23.18-5.48,24-14.47.91-9.89-4.08-16.58-25.25-23.19-23.44-7.31-35.89-20-33.95-41,1.72-18.7,15.4-33.22,44.54-30.54,19.78,1.83,33,9.76,40.57,24.24Z"/><path d="M524,135.66c-5.33-9-11.53-14.67-25.56-16-12.77-1.17-20.85,3.88-21.81,14.32-1.09,11.87,7.83,17.4,24.75,22.77,24.5,7.7,36.59,18.25,34.53,40.55-1.71,18.53-15.69,34.47-45.55,31.72-21.22-2-35.55-9.81-44.53-24.6l17.41-9.82c6.56,9.49,13.51,14.84,27.72,16.15,17.09,1.58,23.18-5.48,24-14.47.91-9.89-4.09-16.58-25.26-23.19-23.43-7.31-35.88-20-33.94-41,1.72-18.7,15.39-33.22,44.53-30.54,19.79,1.83,33,9.76,40.58,24.24Z"/><path d="M523.57,135.92c-5.34-9-11.53-14.66-25.56-16-12.77-1.17-20.85,3.88-21.81,14.32-1.1,11.87,7.82,17.4,24.74,22.77,24.51,7.7,36.59,18.25,34.54,40.55-1.71,18.53-15.69,34.47-45.55,31.72-21.23-2-35.56-9.81-44.53-24.6l17.41-9.82c6.56,9.49,13.51,14.85,27.71,16.15,17.09,1.58,23.18-5.48,24-14.47.91-9.89-4.08-16.58-25.25-23.19-23.44-7.31-35.89-20-33.95-41,1.73-18.7,15.4-33.22,44.54-30.54,19.78,1.83,33,9.76,40.57,24.24Z"/><path d="M523.14,136.18c-5.33-9-11.53-14.66-25.55-16-12.78-1.17-20.86,3.88-21.82,14.32-1.09,11.87,7.83,17.41,24.75,22.77,24.5,7.7,36.59,18.25,34.53,40.55-1.7,18.53-15.69,34.47-45.55,31.72-21.22-2-35.55-9.81-44.53-24.6l17.41-9.82c6.57,9.49,13.51,14.85,27.72,16.15,17.09,1.58,23.18-5.48,24-14.47.91-9.89-4.09-16.58-25.26-23.19-23.43-7.31-35.88-20-33.94-41,1.72-18.7,15.39-33.22,44.53-30.54,19.79,1.83,33,9.76,40.58,24.24Z"/><path d="M522.72,136.44c-5.34-9-11.53-14.66-25.56-16-12.77-1.17-20.85,3.88-21.81,14.32-1.1,11.87,7.83,17.41,24.74,22.77,24.51,7.7,36.59,18.25,34.54,40.55-1.71,18.53-15.69,34.47-45.55,31.72-21.23-2-35.56-9.81-44.53-24.6L462,195.42c6.56,9.49,13.51,14.85,27.71,16.15,17.09,1.58,23.19-5.48,24-14.47.92-9.89-4.08-16.58-25.25-23.19-23.44-7.31-35.89-20-33.95-41,1.73-18.7,15.4-33.22,44.54-30.54,19.78,1.83,33,9.76,40.57,24.24Z"/><path d="M522.29,136.7c-5.33-9-11.53-14.66-25.55-16-12.77-1.17-20.86,3.88-21.82,14.32-1.09,11.87,7.83,17.41,24.75,22.77,24.5,7.7,36.59,18.25,34.53,40.55-1.7,18.53-15.69,34.47-45.55,31.72-21.22-1.95-35.55-9.81-44.53-24.6l17.41-9.82c6.57,9.49,13.51,14.85,27.72,16.15,17.09,1.58,23.18-5.48,24-14.47.91-9.89-4.09-16.58-25.26-23.19-23.43-7.31-35.88-20-33.94-41,1.72-18.7,15.39-33.22,44.53-30.54,19.79,1.83,33,9.76,40.58,24.24Z"/><path d="M521.87,137c-5.34-9-11.53-14.66-25.56-16-12.77-1.17-20.85,3.88-21.81,14.32-1.1,11.87,7.83,17.41,24.74,22.77,24.51,7.7,36.59,18.25,34.54,40.55-1.71,18.53-15.69,34.47-45.55,31.72-21.23-2-35.56-9.81-44.53-24.6l17.41-9.82c6.56,9.49,13.51,14.85,27.71,16.16,17.09,1.57,23.19-5.49,24-14.48.92-9.89-4.08-16.58-25.25-23.19-23.44-7.31-35.89-20-33.95-41,1.73-18.7,15.4-33.22,44.54-30.54,19.78,1.83,33,9.76,40.57,24.24Z"/><path d="M521.44,137.22c-5.33-9-11.52-14.66-25.55-16-12.77-1.17-20.86,3.88-21.82,14.32C473,147.45,481.9,153,498.82,158.35c24.5,7.7,36.59,18.25,34.53,40.55-1.7,18.53-15.69,34.47-45.55,31.72-21.22-2-35.55-9.81-44.53-24.6l17.42-9.82c6.56,9.49,13.5,14.85,27.71,16.16,17.09,1.57,23.18-5.49,24-14.48.91-9.89-4.08-16.58-25.26-23.19-23.43-7.31-35.88-20-33.94-41,1.72-18.7,15.39-33.22,44.53-30.54,19.79,1.83,33,9.76,40.58,24.24Z"/><path d="M521,137.48c-5.34-9-11.53-14.66-25.56-16-12.77-1.17-20.85,3.89-21.81,14.32-1.1,11.87,7.83,17.41,24.74,22.77,24.51,7.7,36.6,18.25,34.54,40.55-1.71,18.53-15.69,34.47-45.55,31.72-21.22-1.95-35.56-9.81-44.53-24.6l17.41-9.82c6.56,9.49,13.51,14.85,27.71,16.16,17.09,1.57,23.19-5.49,24-14.48.92-9.89-4.08-16.58-25.25-23.19-23.44-7.31-35.89-20-34-41,1.73-18.71,15.4-33.23,44.54-30.55,19.78,1.83,33,9.76,40.57,24.24Z"/><path d="M520.59,137.74c-5.33-9-11.52-14.66-25.55-16-12.77-1.17-20.85,3.89-21.82,14.32-1.09,11.87,7.83,17.41,24.75,22.77,24.5,7.7,36.59,18.25,34.54,40.55C530.8,218,516.81,233.89,487,231.14c-21.23-1.95-35.56-9.81-44.54-24.6l17.42-9.82c6.56,9.49,13.5,14.85,27.71,16.16,17.09,1.57,23.18-5.49,24-14.48.91-9.89-4.08-16.58-25.26-23.19-23.43-7.31-35.88-20-33.94-41,1.72-18.71,15.4-33.23,44.53-30.55,19.79,1.83,33,9.76,40.58,24.24Z"/><path d="M520.17,138c-5.34-9-11.53-14.66-25.56-16-12.77-1.17-20.85,3.89-21.81,14.32-1.09,11.87,7.83,17.41,24.74,22.77,24.51,7.7,36.6,18.25,34.54,40.55-1.71,18.53-15.69,34.47-45.55,31.72-21.22-2-35.55-9.81-44.53-24.6L459.41,197c6.56,9.49,13.51,14.85,27.71,16.16,17.09,1.57,23.19-5.49,24-14.48.91-9.89-4.09-16.58-25.26-23.19-23.44-7.31-35.89-20-33.95-41,1.73-18.71,15.4-33.23,44.54-30.55,19.78,1.83,33,9.76,40.57,24.24Z"/><path d="M519.74,138.26c-5.33-9-11.52-14.66-25.55-16-12.77-1.17-20.85,3.89-21.82,14.32-1.09,11.87,7.83,17.41,24.75,22.78,24.5,7.69,36.59,18.24,34.54,40.54C530,218.47,516,234.41,486.11,231.66c-21.23-1.95-35.56-9.81-44.53-24.6L459,197.24c6.56,9.49,13.5,14.85,27.71,16.16,17.09,1.57,23.18-5.49,24-14.48.91-9.89-4.08-16.58-25.26-23.19-23.43-7.31-35.88-20-33.94-41,1.72-18.71,15.4-33.23,44.53-30.55,19.79,1.83,33,9.76,40.58,24.24Z"/><path d="M519.32,138.52c-5.34-9-11.53-14.66-25.56-16-12.77-1.17-20.85,3.89-21.81,14.32-1.09,11.87,7.83,17.41,24.75,22.78,24.5,7.7,36.59,18.24,34.53,40.54-1.71,18.53-15.69,34.47-45.55,31.72-21.22-1.95-35.55-9.81-44.53-24.6l17.41-9.82c6.56,9.49,13.51,14.85,27.72,16.16,17.08,1.57,23.18-5.49,24-14.48.91-9.89-4.09-16.58-25.26-23.19-23.44-7.31-35.88-20-33.95-41,1.73-18.71,15.4-33.23,44.54-30.55,19.78,1.83,33,9.76,40.58,24.24Z"/><path d="M518.9,138.78c-5.34-9-11.53-14.66-25.56-16-12.77-1.17-20.85,3.89-21.81,14.32-1.1,11.87,7.82,17.41,24.74,22.78,24.51,7.7,36.59,18.24,34.54,40.54-1.71,18.53-15.69,34.47-45.55,31.72-21.23-2-35.56-9.81-44.53-24.6l17.41-9.82c6.56,9.49,13.5,14.85,27.71,16.16,17.09,1.57,23.18-5.49,24-14.48.91-9.89-4.08-16.58-25.25-23.19-23.44-7.31-35.89-20-33.95-41,1.72-18.71,15.4-33.23,44.53-30.55,19.79,1.83,33,9.76,40.58,24.24Z"/><path d="M518.47,139c-5.34-9-11.53-14.66-25.56-16-12.77-1.17-20.85,3.89-21.81,14.32-1.09,11.87,7.83,17.41,24.75,22.78,24.5,7.7,36.59,18.24,34.53,40.54-1.71,18.53-15.69,34.47-45.55,31.72-21.22-1.95-35.55-9.81-44.53-24.6L457.71,198c6.56,9.49,13.51,14.85,27.72,16.16,17.08,1.57,23.18-5.49,24-14.48.91-9.89-4.09-16.58-25.26-23.18-23.44-7.31-35.88-20-33.94-41,1.72-18.71,15.39-33.23,44.53-30.55,19.79,1.83,33,9.76,40.58,24.24Z"/><path d="M518.05,139.3c-5.34-9-11.53-14.66-25.56-16-12.77-1.17-20.85,3.89-21.81,14.32-1.1,11.87,7.82,17.41,24.74,22.78C519.93,168.14,532,178.68,530,201c-1.71,18.53-15.69,34.47-45.55,31.72-21.23-1.95-35.56-9.8-44.53-24.6l17.41-9.82c6.56,9.49,13.51,14.85,27.71,16.16C502.09,216,508.18,209,509,200c.91-9.89-4.08-16.58-25.25-23.18-23.44-7.31-35.89-20-33.95-41,1.72-18.71,15.4-33.23,44.54-30.55,19.78,1.83,33,9.76,40.57,24.24Z"/><path d="M517.62,139.56c-5.33-9-11.53-14.66-25.56-16-12.77-1.17-20.85,3.89-21.81,14.32-1.09,11.87,7.83,17.41,24.75,22.78,24.5,7.7,36.59,18.24,34.53,40.54C527.82,219.77,513.84,235.71,484,233c-21.22-2-35.55-9.8-44.53-24.6l17.41-9.82c6.56,9.49,13.51,14.85,27.72,16.16,17.08,1.57,23.18-5.49,24-14.48.91-9.89-4.09-16.58-25.26-23.18-23.43-7.31-35.88-20-33.94-41,1.72-18.71,15.39-33.23,44.53-30.55,19.79,1.83,33,9.76,40.58,24.24Z"/><path d="M517.2,139.82c-5.34-9-11.53-14.66-25.56-16-12.77-1.17-20.85,3.89-21.81,14.32-1.1,11.87,7.82,17.41,24.74,22.78,24.51,7.7,36.59,18.24,34.54,40.54C527.4,220,513.42,236,483.56,233.22c-21.23-1.95-35.56-9.8-44.53-24.6l17.41-9.82C463,208.29,470,213.65,484.15,215c17.09,1.57,23.18-5.49,24-14.48.91-9.89-4.08-16.58-25.25-23.18-23.44-7.31-35.89-20-34-41,1.73-18.71,15.4-33.23,44.54-30.55,19.78,1.83,33,9.76,40.57,24.24Z"/><path d="M516.77,140.08c-5.33-9-11.53-14.66-25.55-16C478.44,123,470.36,128,469.4,138.44c-1.09,11.87,7.83,17.41,24.75,22.78,24.5,7.7,36.59,18.24,34.53,40.54-1.7,18.53-15.69,34.48-45.55,31.72-21.22-1.95-35.55-9.8-44.53-24.6L456,199.06c6.56,9.49,13.51,14.85,27.72,16.16,17.09,1.57,23.18-5.49,24-14.48.91-9.89-4.09-16.58-25.26-23.18-23.43-7.31-35.88-20-33.94-41,1.72-18.71,15.39-33.23,44.53-30.54,19.79,1.82,33,9.75,40.58,24.23Z"/><path d="M516.35,140.34c-5.34-9-11.53-14.66-25.56-16C478,123.21,469.94,128.27,469,138.7c-1.1,11.87,7.83,17.41,24.74,22.78,24.51,7.7,36.59,18.24,34.54,40.55-1.71,18.52-15.69,34.47-45.55,31.71-21.23-2-35.56-9.8-44.53-24.6l17.41-9.82c6.56,9.49,13.51,14.85,27.71,16.16,17.09,1.57,23.18-5.48,24-14.48.92-9.89-4.08-16.58-25.25-23.18-23.44-7.31-35.89-20-33.95-41,1.73-18.71,15.4-33.23,44.54-30.54,19.78,1.82,33,9.75,40.57,24.23Z"/><path d="M515.92,140.6c-5.33-9-11.53-14.66-25.55-15.95-12.77-1.18-20.86,3.88-21.82,14.31-1.09,11.87,7.83,17.41,24.75,22.78,24.5,7.7,36.59,18.24,34.53,40.55-1.7,18.52-15.69,34.47-45.55,31.71-21.22-1.95-35.55-9.8-44.53-24.6l17.41-9.82c6.57,9.49,13.51,14.85,27.72,16.16,17.09,1.57,23.18-5.48,24-14.48.91-9.89-4.09-16.58-25.26-23.18-23.43-7.31-35.88-20-33.94-41,1.72-18.71,15.39-33.23,44.53-30.54,19.79,1.82,33,9.75,40.58,24.23Z"/><path d="M515.5,140.86c-5.34-9-11.53-14.66-25.56-16-12.77-1.18-20.85,3.88-21.81,14.31C467,151.09,476,156.63,492.87,162c24.51,7.7,36.59,18.24,34.54,40.55-1.71,18.52-15.69,34.47-45.55,31.71-21.23-1.95-35.56-9.8-44.53-24.6l17.41-9.82c6.56,9.49,13.51,14.85,27.71,16.16,17.09,1.57,23.19-5.48,24-14.48.92-9.89-4.08-16.58-25.25-23.18-23.44-7.31-35.89-20-33.95-41,1.73-18.71,15.4-33.23,44.54-30.54,19.78,1.82,33,9.75,40.57,24.23Z"/><path d="M515.07,141.12c-5.33-9-11.52-14.66-25.55-16-12.77-1.18-20.86,3.88-21.82,14.31-1.09,11.87,7.83,17.41,24.75,22.78C517,170,529,180.5,527,202.81c-1.7,18.52-15.69,34.47-45.55,31.71-21.22-2-35.55-9.8-44.53-24.6l17.42-9.82c6.56,9.49,13.5,14.85,27.71,16.16,17.09,1.57,23.18-5.48,24-14.48.91-9.89-4.08-16.58-25.26-23.18-23.43-7.31-35.88-20-33.94-41,1.72-18.71,15.39-33.23,44.53-30.54,19.79,1.82,33,9.75,40.58,24.23Z"/><path d="M514.65,141.38c-5.34-9-11.53-14.66-25.56-15.95-12.77-1.18-20.85,3.88-21.81,14.31-1.1,11.87,7.83,17.41,24.74,22.78,24.51,7.7,36.6,18.24,34.54,40.55-1.71,18.52-15.69,34.47-45.55,31.71-21.22-1.95-35.56-9.8-44.53-24.6l17.41-9.82c6.56,9.49,13.51,14.85,27.71,16.16,17.09,1.57,23.19-5.48,24-14.48.92-9.89-4.08-16.58-25.25-23.18-23.44-7.31-35.89-20-33.95-41,1.73-18.71,15.4-33.23,44.54-30.54,19.78,1.82,33,9.75,40.57,24.23Z"/><path d="M514.22,141.64c-5.33-9-11.52-14.66-25.55-15.95-12.77-1.18-20.85,3.88-21.82,14.31-1.09,11.87,7.83,17.41,24.75,22.78,24.5,7.7,36.59,18.24,34.54,40.55-1.71,18.52-15.7,34.47-45.55,31.71-21.23-1.95-35.56-9.8-44.54-24.6l17.42-9.82c6.56,9.49,13.5,14.85,27.71,16.16,17.09,1.57,23.18-5.48,24-14.48.91-9.89-4.08-16.58-25.26-23.18-23.43-7.31-35.88-20-33.94-41,1.72-18.71,15.4-33.23,44.53-30.54,19.79,1.82,33,9.75,40.58,24.23Z"/><path d="M513.8,141.9c-5.34-9-11.53-14.66-25.56-16-12.77-1.18-20.85,3.88-21.81,14.31-1.09,11.87,7.83,17.41,24.74,22.78,24.51,7.7,36.6,18.24,34.54,40.55C524,222.11,510,238.06,480.16,235.3c-21.22-2-35.55-9.8-44.53-24.6L453,200.88c6.56,9.49,13.51,14.85,27.71,16.16,17.09,1.57,23.19-5.48,24-14.48.91-9.89-4.09-16.58-25.26-23.18-23.44-7.31-35.89-20-33.95-41,1.73-18.71,15.4-33.23,44.54-30.54,19.78,1.82,33,9.75,40.57,24.23Z"/><path d="M513.37,142.16c-5.33-9-11.52-14.66-25.55-16C475.05,125,467,130.09,466,140.52c-1.09,11.87,7.83,17.41,24.75,22.78,24.5,7.7,36.59,18.24,34.54,40.55-1.71,18.52-15.69,34.47-45.55,31.72-21.23-2-35.56-9.81-44.53-24.61l17.41-9.82c6.56,9.49,13.5,14.85,27.71,16.16,17.09,1.57,23.18-5.48,24-14.48.91-9.89-4.08-16.58-25.26-23.18-23.43-7.31-35.88-20-33.94-41,1.72-18.71,15.4-33.23,44.53-30.54,19.79,1.82,33,9.75,40.58,24.23Z"/><path d="M513,142.43c-5.34-9-11.53-14.67-25.56-16-12.77-1.18-20.85,3.88-21.81,14.31-1.09,11.87,7.83,17.41,24.75,22.78,24.5,7.7,36.59,18.24,34.53,40.55-1.71,18.52-15.69,34.47-45.55,31.72-21.22-2-35.55-9.81-44.53-24.61l17.41-9.82c6.56,9.49,13.51,14.85,27.72,16.16,17.08,1.57,23.18-5.48,24-14.48.91-9.89-4.09-16.58-25.26-23.18-23.44-7.31-35.88-20-34-41,1.73-18.71,15.4-33.23,44.54-30.54,19.78,1.82,33,9.75,40.57,24.23Z"/><path d="M512.53,142.69c-5.34-9-11.53-14.67-25.56-16-12.77-1.18-20.85,3.88-21.81,14.31-1.1,11.87,7.82,17.41,24.74,22.78,24.51,7.7,36.59,18.24,34.54,40.55-1.71,18.52-15.69,34.47-45.55,31.72-21.23-2-35.56-9.81-44.53-24.61l17.41-9.82c6.56,9.49,13.5,14.85,27.71,16.16,17.09,1.57,23.18-5.48,24-14.47.91-9.9-4.08-16.59-25.25-23.19-23.44-7.31-35.89-20-33.95-41,1.72-18.71,15.4-33.23,44.53-30.54,19.79,1.82,33,9.75,40.58,24.23Z"/><path d="M512.1,143c-5.34-9-11.53-14.67-25.56-16-12.77-1.18-20.85,3.88-21.81,14.31-1.09,11.87,7.83,17.41,24.75,22.78,24.5,7.7,36.59,18.24,34.53,40.55-1.71,18.52-15.69,34.47-45.55,31.72-21.22-2-35.55-9.81-44.53-24.61l17.41-9.82c6.56,9.49,13.51,14.85,27.72,16.16,17.08,1.57,23.18-5.48,24-14.47.91-9.9-4.09-16.59-25.26-23.19-23.44-7.31-35.88-20-33.94-41,1.72-18.71,15.39-33.23,44.53-30.54,19.78,1.82,33,9.75,40.58,24.23Z"/><path d="M511.68,143.21c-5.34-9-11.53-14.67-25.56-16-12.77-1.18-20.85,3.88-21.81,14.31-1.1,11.87,7.82,17.41,24.74,22.78,24.51,7.7,36.59,18.24,34.54,40.55-1.71,18.52-15.69,34.47-45.55,31.72-21.23-2-35.56-9.81-44.53-24.61l17.41-9.82c6.56,9.49,13.51,14.85,27.71,16.16,17.09,1.57,23.18-5.48,24-14.47.91-9.9-4.08-16.59-25.25-23.19-23.44-7.31-35.89-20-33.95-41,1.72-18.71,15.4-33.23,44.54-30.54,19.78,1.82,33,9.75,40.57,24.23Z"/><path d="M511.25,143.47c-5.33-9-11.53-14.67-25.56-16-12.77-1.18-20.85,3.88-21.81,14.31-1.09,11.87,7.83,17.41,24.75,22.78,24.5,7.7,36.59,18.24,34.53,40.55-1.71,18.52-15.69,34.47-45.55,31.72-21.22-2-35.55-9.81-44.53-24.61l17.41-9.82c6.56,9.49,13.51,14.85,27.72,16.16,17.08,1.57,23.18-5.48,24-14.47.91-9.9-4.11-16.53-25.26-23.19-23.46-7.24-35.88-20-33.94-41,1.72-18.71,15.39-33.23,44.53-30.54,19.79,1.82,33,9.75,40.58,24.23Z"/><path class="cls-4" d="M511.25,143.47c-5.33-9-11.53-14.67-25.56-16-12.77-1.18-20.85,3.88-21.81,14.31-1.09,11.87,7.83,17.41,24.75,22.78,24.5,7.7,36.59,18.24,34.53,40.55-1.71,18.52-15.69,34.47-45.55,31.72-21.22-2-35.55-9.81-44.53-24.61l17.41-9.82c6.56,9.49,13.51,14.85,27.72,16.16,17.08,1.57,23.18-5.48,24-14.47.91-9.9-4.11-16.53-25.26-23.19-23.46-7.24-35.88-20-33.94-41,1.72-18.71,15.39-33.23,44.53-30.54,19.79,1.82,33,9.75,40.58,24.23Z"/></g><path class="cls-4" d="M452.37,76.94c-5.34-9-11.53-14.66-25.56-15.95C414,59.81,406,64.87,405,75.3c-1.1,11.87,7.83,17.41,24.74,22.78,24.51,7.7,36.59,18.24,34.54,40.55-1.71,18.52-15.69,34.47-45.55,31.71-21.23-2-35.56-9.8-44.53-24.6l17.41-9.82c6.56,9.49,13.51,14.85,27.71,16.16,17.09,1.57,23.19-5.48,24-14.48.92-9.89-4.1-16.52-25.25-23.18-23.46-7.24-35.89-20-33.95-41,1.73-18.71,15.4-33.23,44.54-30.54,19.78,1.82,33,9.75,40.57,24.23Z"/><path class="cls-4" d="M511.25,143.47c-5.33-9-11.53-14.67-25.56-16-12.77-1.18-20.85,3.88-21.81,14.31-1.09,11.87,7.83,17.41,24.75,22.78,24.5,7.7,36.59,18.24,34.53,40.55-1.71,18.52-15.69,34.47-45.55,31.72-21.22-2-35.55-9.81-44.53-24.61l17.41-9.82c6.56,9.49,13.51,14.85,27.72,16.16,17.08,1.57,23.18-5.48,24-14.47.91-9.9-4.11-16.53-25.26-23.19-23.46-7.24-35.88-20-33.94-41,1.72-18.71,15.39-33.23,44.53-30.54,19.79,1.82,33,9.75,40.58,24.23Z"/></g></g></svg>