<svg width="14" height="14" viewBox="0 0 14 14" fill="none" xmlns="http://www.w3.org/2000/svg">
<g clip-path="url(#clip0)">
<path d="M12.5976 6.95689H11.6088C11.404 6.95689 11.238 7.1229 11.238 7.32768V11.8358C11.238 12.0751 11.0433 12.2698 10.804 12.2698H2.16419C1.92495 12.2698 1.73036 12.0751 1.73036 11.8358V3.19617C1.73036 2.95684 1.92495 2.7621 2.16419 2.7621H6.90315C7.10792 2.7621 7.27394 2.59608 7.27394 2.39131V1.40253C7.27394 1.19775 7.10792 1.03174 6.90315 1.03174H2.16419C0.970831 1.03174 0 2.00272 0 3.19617V11.8359C0 13.0293 0.970881 14.0002 2.16419 14.0002H10.8039C11.9974 14.0002 12.9683 13.0293 12.9683 11.8359V7.32773C12.9684 7.1229 12.8023 6.95689 12.5976 6.95689Z" fill="white"/>
<path d="M13.6288 0H9.69574C9.49097 0 9.32495 0.166016 9.32495 0.370791V1.35957C9.32495 1.56434 9.49097 1.73036 9.69574 1.73036H11.0456L5.96603 6.80986C5.82122 6.95466 5.82122 7.1894 5.96603 7.33426L6.66519 8.03347C6.73475 8.10303 6.82903 8.14209 6.92742 8.14209C7.02575 8.14209 7.12008 8.10303 7.18959 8.03347L12.2692 2.95387V4.3037C12.2692 4.50848 12.4352 4.67449 12.64 4.67449H13.6288C13.8335 4.67449 13.9995 4.50848 13.9995 4.3037V0.370791C13.9995 0.166016 13.8335 0 13.6288 0Z" fill="white"/>
</g>
<defs>
<clipPath id="clip0">
<rect width="14" height="14" fill="white"/>
</clipPath>
</defs>
</svg>
