<svg width="24" height="24" viewBox="0 0 24 24" fill="none" xmlns="http://www.w3.org/2000/svg">
<g clip-path="url(#clip0)">
<path d="M17.25 23.998H2.75006C1.23303 23.998 0 22.765 0 21.2479V6.74799C0 5.23096 1.23303 3.99792 2.75006 3.99792H11.25C11.664 3.99792 12 4.33392 12 4.74792C12 5.16193 11.664 5.49792 11.25 5.49792H2.75006C2.06104 5.49792 1.5 6.05896 1.5 6.74799V21.2479C1.5 21.937 2.06104 22.498 2.75006 22.498H17.25C17.939 22.498 18.5001 21.937 18.5001 21.2479V12.748C18.5001 12.334 18.8361 11.998 19.2501 11.998C19.6641 11.998 20.0001 12.3331 20.0001 12.748V21.2479C20.0001 22.765 18.767 23.998 17.25 23.998Z" fill="#A3A3A3"/>
<path d="M8.77304 15.976C8.57602 15.976 8.38394 15.898 8.24295 15.7561C8.06497 15.579 7.98899 15.324 8.03806 15.079L8.74503 11.543C8.77396 11.3971 8.84592 11.264 8.94992 11.16L19.3071 0.804062C20.379 -0.268021 22.1231 -0.268021 23.1961 0.804062C23.715 1.32298 24.001 2.01311 24.001 2.74809C24.001 3.48308 23.715 4.17302 23.195 4.69212L12.8391 15.0491C12.7351 15.154 12.601 15.2251 12.456 15.254L8.92099 15.961C8.87192 15.9711 8.82193 15.976 8.77304 15.976ZM12.309 14.519H12.3191H12.309ZM10.1711 12.0601L9.72995 14.27L11.9389 13.828L22.135 3.63213C22.371 3.395 22.501 3.08208 22.501 2.74809C22.501 2.41411 22.371 2.101 22.135 1.86406C21.649 1.377 20.856 1.377 20.3671 1.86406L10.1711 12.0601Z" fill="#A3A3A3"/>
<path d="M21.2496 6.32715C21.0577 6.32715 20.8656 6.25409 20.7197 6.10706L17.8916 3.27808C17.5986 2.98511 17.5986 2.51013 17.8916 2.21716C18.1846 1.92419 18.6595 1.92419 18.9527 2.21716L21.7806 5.04614C22.0735 5.33911 22.0735 5.81409 21.7806 6.10706C21.6335 6.25317 21.4417 6.32715 21.2496 6.32715Z" fill="#A3A3A3"/>
</g>
<defs>
<clipPath id="clip0">
<rect width="24" height="24" fill="white"/>
</clipPath>
</defs>
</svg>
