<svg width="16" height="15" viewBox="0 0 16 15" fill="none" xmlns="http://www.w3.org/2000/svg">
<path d="M8.66667 11.1251C8.66667 11.4933 8.36819 11.7918 8 11.7918C7.63181 11.7918 7.33333 11.4933 7.33333 11.1251C7.33333 10.757 7.63181 10.4585 8 10.4585C8.36819 10.4585 8.66667 10.757 8.66667 11.1251Z" fill="#F3AB1C"/>
<path d="M8.5 5.62514C8.5 5.349 8.27614 5.12514 8 5.12514C7.72386 5.12514 7.5 5.349 7.5 5.62514V8.62514C7.5 8.90129 7.72386 9.12514 8 9.12514C8.27614 9.12514 8.5 8.90129 8.5 8.62514V5.62514Z" fill="#F3AB1C"/>
<path fill-rule="evenodd" clip-rule="evenodd" d="M6.55724 1.62117C7.19901 0.511449 8.80102 0.511449 9.44279 1.62117L15.4204 11.9574C16.0629 13.0685 15.2611 14.4585 13.9776 14.4585H2.02243C0.738894 14.4585 -0.0629154 13.0685 0.579655 11.9574L6.55724 1.62117ZM8.57713 2.1218C8.32042 1.67791 7.67962 1.67791 7.42291 2.1218L1.44532 12.458C1.18829 12.9025 1.50901 13.4585 2.02243 13.4585H13.9776C14.491 13.4585 14.8117 12.9025 14.5547 12.458L8.57713 2.1218Z" fill="#F3AB1C"/>
</svg>
