<svg width="24" height="24" viewBox="0 0 24 24" fill="none" xmlns="http://www.w3.org/2000/svg">
<g clip-path="url(#clip0)">
<path d="M11.9996 12.0308C5.67497 12.0308 0.529297 17.1765 0.529297 23.5011C0.529297 23.7764 0.752735 23.9998 1.02802 23.9998C1.30331 23.9998 1.52675 23.7764 1.52675 23.5011C1.52675 17.726 6.22461 13.0282 11.9997 13.0282C17.7748 13.0282 22.4726 17.726 22.4726 23.5011C22.4726 23.7764 22.6961 23.9998 22.9714 23.9998C23.2466 23.9998 23.4701 23.7764 23.4701 23.5011C23.47 17.1755 18.3243 12.0308 11.9996 12.0308Z" fill="white"/>
<path d="M11.9995 0C8.97528 0 6.51367 2.46063 6.51367 5.48581C6.51367 8.51099 8.97533 10.9716 11.9995 10.9716C15.0236 10.9716 17.4853 8.51099 17.4853 5.48581C17.4853 2.46063 15.0237 0 11.9995 0ZM11.9995 9.97421C9.52488 9.97421 7.51108 7.96041 7.51108 5.48581C7.51108 3.0112 9.52488 0.997407 11.9995 0.997407C14.4741 0.997407 16.4879 3.0112 16.4879 5.48581C16.4879 7.96041 14.4741 9.97421 11.9995 9.97421Z" fill="white"/>
</g>
<defs>
<clipPath id="clip0">
<rect width="24" height="24" fill="white"/>
</clipPath>
</defs>
</svg>
