<svg width="17" height="16" viewBox="0 0 17 16" fill="none" xmlns="http://www.w3.org/2000/svg">
<g clip-path="url(#clip0)">
<path d="M16.0766 8C16.0766 3.58125 12.4782 0 8.03828 0C3.59839 0 0 3.58125 0 8C0 12.4187 3.59839 16 8.03828 16C8.08538 16 8.13248 16 8.17958 15.9969V9.77188H6.4526V7.76875H8.17958V6.29375C8.17958 4.58437 9.22832 3.65313 10.7606 3.65313C11.4954 3.65313 12.1265 3.70625 12.3086 3.73125V5.51875H11.2536C10.4215 5.51875 10.2582 5.9125 10.2582 6.49062V7.76562H12.2521L11.9915 9.76875H10.2582V15.6906C13.618 14.7312 16.0766 11.6531 16.0766 8Z" fill="white"/>
</g>
<defs>
<clipPath id="clip0">
<rect width="16.0766" height="16" fill="white"/>
</clipPath>
</defs>
</svg>
