<svg width="16" height="16" viewBox="0 0 16 16" fill="none" xmlns="http://www.w3.org/2000/svg">
<g clip-path="url(#clip0)">
<path d="M15.9846 4.70404C15.9471 3.8539 15.8096 3.26944 15.6127 2.76299C15.4095 2.22541 15.097 1.74412 14.6875 1.34401C14.2873 0.937683 13.8029 0.621948 13.2715 0.421957C12.7621 0.22502 12.1807 0.0875415 11.3306 0.0500586C10.4741 0.00940124 10.2022 0 8.02989 0C5.85759 0 5.58569 0.00940124 4.73237 0.0468842C3.88223 0.0843671 3.29776 0.221967 2.79144 0.418783C2.25373 0.621948 1.77244 0.934509 1.37233 1.34401C0.966005 1.74412 0.650391 2.22858 0.450278 2.75994C0.25334 3.26944 0.115862 3.85073 0.078379 4.70087C0.0377216 5.55736 0.0283203 5.82926 0.0283203 8.00156C0.0283203 10.1739 0.0377216 10.4458 0.0752045 11.2991C0.112687 12.1492 0.250288 12.7337 0.447226 13.2401C0.650391 13.7777 0.966005 14.259 1.37233 14.6591C1.77244 15.0654 2.25691 15.3812 2.78826 15.5812C3.29776 15.7781 3.87905 15.9156 4.72932 15.9531C5.58251 15.9907 5.85454 16 8.02684 16C10.1991 16 10.471 15.9907 11.3244 15.9531C12.1745 15.9156 12.759 15.7781 13.2653 15.5812C14.3406 15.1654 15.1907 14.3153 15.6065 13.2401C15.8033 12.7306 15.9409 12.1492 15.9784 11.2991C16.0158 10.4458 16.0252 10.1739 16.0252 8.00156C16.0252 5.82926 16.0221 5.55736 15.9846 4.70404ZM14.5437 11.2366C14.5093 12.018 14.3781 12.4399 14.2687 12.7212C13.9998 13.4183 13.4466 13.9715 12.7496 14.2403C12.4683 14.3497 12.0433 14.481 11.2649 14.5153C10.421 14.5529 10.1679 14.5622 8.03307 14.5622C5.89825 14.5622 5.64197 14.5529 4.80111 14.5153C4.01971 14.481 3.59775 14.3497 3.31644 14.2403C2.96957 14.1121 2.65384 13.909 2.39756 13.6433C2.13188 13.3838 1.92872 13.0713 1.80052 12.7244C1.69112 12.4431 1.55987 12.018 1.52556 11.2397C1.48796 10.3958 1.47868 10.1426 1.47868 8.00779C1.47868 5.87297 1.48796 5.6167 1.52556 4.77596C1.55987 3.99455 1.69112 3.5726 1.80052 3.29129C1.92872 2.9443 2.13188 2.62869 2.40073 2.37229C2.66006 2.10661 2.97262 1.90345 3.31962 1.77537C3.60092 1.66597 4.02605 1.53472 4.80428 1.50029C5.6482 1.46281 5.90142 1.45341 8.03612 1.45341C10.1741 1.45341 10.4272 1.46281 11.2681 1.50029C12.0495 1.53472 12.4714 1.66597 12.7527 1.77537C13.0996 1.90345 13.4154 2.10661 13.6716 2.37229C13.9373 2.63174 14.1405 2.9443 14.2687 3.29129C14.3781 3.5726 14.5093 3.99761 14.5437 4.77596C14.5812 5.61987 14.5906 5.87297 14.5906 8.00779C14.5906 10.1426 14.5812 10.3927 14.5437 11.2366Z" fill="white"/>
<path d="M8.0301 3.8916C5.76098 3.8916 3.91992 5.73254 3.91992 8.00178C3.91992 10.271 5.76098 12.112 8.0301 12.112C10.2993 12.112 12.1403 10.271 12.1403 8.00178C12.1403 5.73254 10.2993 3.8916 8.0301 3.8916ZM8.0301 10.668C6.55801 10.668 5.36393 9.47399 5.36393 8.00178C5.36393 6.52957 6.55801 5.33561 8.0301 5.33561C9.50231 5.33561 10.6963 6.52957 10.6963 8.00178C10.6963 9.47399 9.50231 10.668 8.0301 10.668Z" fill="white"/>
<path d="M13.262 3.72907C13.262 4.25896 12.8323 4.68861 12.3023 4.68861C11.7724 4.68861 11.3428 4.25896 11.3428 3.72907C11.3428 3.19906 11.7724 2.76953 12.3023 2.76953C12.8323 2.76953 13.262 3.19906 13.262 3.72907Z" fill="white"/>
</g>
<defs>
<clipPath id="clip0">
<rect width="16" height="16" fill="white"/>
</clipPath>
</defs>
</svg>
