<svg width="18" height="18" viewBox="0 0 18 18" fill="none" xmlns="http://www.w3.org/2000/svg">
<g clip-path="url(#clip0)">
<path d="M9.9306 7.44715H8.28292V5.79947C8.28292 5.42181 7.97878 5.11768 7.60112 5.11768C7.22346 5.11768 6.91932 5.42181 6.91932 5.79947V7.44715H5.27164C4.89398 7.44715 4.58984 7.75129 4.58984 8.12895C4.58984 8.50661 4.89398 8.81075 5.27164 8.81075H6.91932V10.4584C6.91932 10.8361 7.22346 11.1402 7.60112 11.1402C7.97878 11.1402 8.28292 10.8361 8.28292 10.4584V8.81075H9.9306C10.3083 8.81075 10.6124 8.50661 10.6124 8.12895C10.6124 7.75129 10.3049 7.44715 9.9306 7.44715Z" fill="#1262EA"/>
<path d="M7.60506 13.7471C4.5002 13.7471 1.98356 11.2338 1.98356 8.12898C1.98356 5.02413 4.5002 2.51083 7.60506 2.51083C10.7099 2.51083 13.2232 5.02747 13.2232 8.12898C13.2232 11.2305 10.7066 13.7471 7.60506 13.7471ZM16.7893 16.354L13.0026 12.5674C13.9952 11.3608 14.5935 9.81343 14.5935 8.12898C14.5935 4.2688 11.4652 1.13721 7.60171 1.13721C3.73819 1.13721 0.613281 4.2688 0.613281 8.12898C0.613281 11.9892 3.74153 15.1208 7.60506 15.1208C9.2895 15.1208 10.8336 14.5259 12.0401 13.5332L15.8267 17.3199C16.0005 17.497 16.5319 17.5839 16.7926 17.3199C17.0567 17.0525 17.0567 16.6214 16.7893 16.354Z" fill="#1262EA"/>
</g>
<defs>
<clipPath id="clip0">
<rect width="17.1118" height="17.1118" fill="white" transform="translate(0.246094 0.756348)"/>
</clipPath>
</defs>
</svg>
