<svg width="14" height="14" viewBox="0 0 14 14" fill="none" xmlns="http://www.w3.org/2000/svg">
<path d="M10.8384 8.7171C10.0221 8.7171 9.29126 9.0895 8.80635 9.67324L5.65201 7.88233C5.7501 7.60629 5.80402 7.30949 5.80402 7.00018C5.80402 6.69094 5.7501 6.39414 5.65201 6.1181L8.8061 4.32675C9.29096 4.91068 10.0219 5.28321 10.8383 5.28321C12.2945 5.28321 13.4793 4.09804 13.4793 2.6412C13.4794 1.1848 12.2946 0 10.8384 0C9.38202 0 8.19716 1.1848 8.19716 2.64114C8.19716 2.95045 8.25101 3.24731 8.34916 3.52341L5.19489 5.31482C4.71004 4.7312 3.97928 4.35892 3.16312 4.35892C1.70653 4.35892 0.521484 5.54372 0.521484 7.00012C0.521484 8.45646 1.70653 9.64127 3.16312 9.64127C3.97928 9.64127 4.70997 9.26899 5.19483 8.68543L8.34916 10.4764C8.25101 10.7525 8.1971 11.0494 8.1971 11.3588C8.1971 12.8151 9.38196 13.9999 10.8384 13.9999C12.2946 13.9999 13.4793 12.8151 13.4793 11.3588C13.4794 9.90221 12.2946 8.7171 10.8384 8.7171ZM10.8384 0.924231C11.785 0.924231 12.5552 1.69442 12.5552 2.64114C12.5552 3.58836 11.785 4.35892 10.8384 4.35892C9.89164 4.35892 9.12139 3.58836 9.12139 2.64114C9.12139 1.69442 9.89164 0.924231 10.8384 0.924231ZM3.16318 8.7171C2.21622 8.7171 1.44578 7.94684 1.44578 7.00018C1.44578 6.0534 2.21622 5.28321 3.16318 5.28321C4.10978 5.28321 4.87985 6.0534 4.87985 7.00018C4.87985 7.94684 4.10972 8.7171 3.16318 8.7171ZM10.8384 13.0758C9.89164 13.0758 9.12139 12.3055 9.12139 11.3589C9.12139 10.4118 9.89164 9.64133 10.8384 9.64133C11.785 9.64133 12.5552 10.4118 12.5552 11.3589C12.5552 12.3055 11.785 13.0758 10.8384 13.0758Z" fill="white"/>
</svg>
