<svg width="24" height="24" viewBox="0 0 24 24" fill="none" xmlns="http://www.w3.org/2000/svg">
<g clip-path="url(#clip0)">
<path d="M20.25 0H3.75C1.67892 0 0 1.67892 0 3.75V15.75C0 17.8211 1.67892 19.5 3.75 19.5H18.4425L22.7175 23.7825C22.8591 23.9229 23.0506 24.0012 23.25 24C23.6642 24 24 23.6642 24 23.25V3.75C24 1.67892 22.3211 0 20.25 0ZM22.5 21.4425L19.2825 18.2175C19.141 18.0771 18.9494 17.9988 18.75 18H3.75C2.50734 18 1.5 16.9927 1.5 15.75V3.75C1.5 2.50734 2.50734 1.5 3.75 1.5H20.25C21.4927 1.5 22.5 2.50734 22.5 3.75V21.4425Z" fill="#FD7C88"/>
<path d="M12 11.25C12.8284 11.25 13.5 10.5784 13.5 9.75C13.5 8.92157 12.8284 8.25 12 8.25C11.1716 8.25 10.5 8.92157 10.5 9.75C10.5 10.5784 11.1716 11.25 12 11.25Z" fill="#FD7C88"/>
<path d="M17.25 11.25C18.0784 11.25 18.75 10.5784 18.75 9.75C18.75 8.92157 18.0784 8.25 17.25 8.25C16.4216 8.25 15.75 8.92157 15.75 9.75C15.75 10.5784 16.4216 11.25 17.25 11.25Z" fill="#FD7C88"/>
<path d="M6.75 11.25C7.57843 11.25 8.25 10.5784 8.25 9.75C8.25 8.92157 7.57843 8.25 6.75 8.25C5.92157 8.25 5.25 8.92157 5.25 9.75C5.25 10.5784 5.92157 11.25 6.75 11.25Z" fill="#FD7C88"/>
</g>
<defs>
<clipPath id="clip0">
<rect width="24" height="24" fill="white"/>
</clipPath>
</defs>
</svg>
