<svg width="40" height="40" viewBox="0 0 40 40" fill="none" xmlns="http://www.w3.org/2000/svg">
<g clip-path="url(#clip0)">
<path d="M39.6224 32.8527L30.1486 28.4316C30.1355 28.4166 30.1191 28.4042 30.1041 28.3904C30.0877 28.3754 30.0713 28.361 30.0537 28.3472C30.0419 28.338 30.0321 28.3263 30.0196 28.3178C29.998 28.3034 29.9745 28.2955 29.9516 28.2844C29.9391 28.2778 29.9293 28.2687 29.9169 28.2628L25.2235 26.2515L17.7551 23.0504L19.8174 22.3632L24.8275 24.4366H24.8282L38.5719 30.1235C38.6517 30.1569 38.7368 30.1732 38.8219 30.1732C38.9495 30.1732 39.0765 30.1359 39.1858 30.0633C39.3671 29.9416 39.4764 29.7374 39.4764 29.5188V8.57497C39.4764 8.30991 39.3167 8.07101 39.0726 7.97022L33.8366 5.8032H33.836L20.0923 0.116306C20.0438 0.0960162 19.9935 0.0829264 19.9424 0.0750725C19.9411 0.0750725 19.9404 0.074418 19.9391 0.074418C19.841 0.0600191 19.7415 0.0698365 19.6472 0.0992887C19.6433 0.100598 19.6387 0.0992887 19.6348 0.100598L0 6.64553L0.414294 7.8871L19.1871 1.62884V21.1929L16.5691 22.0654V16.4289C16.5691 16.2214 16.471 16.0264 16.3047 15.9027C16.1378 15.7796 15.9225 15.7417 15.7242 15.8025L0.670855 20.384C0.395314 20.4678 0.20682 20.7224 0.20682 21.0103V27.5553V31.4822C0.20682 31.7342 0.351463 31.9639 0.578572 32.0726L7.54107 35.4026L4.51731 36.7771C4.28497 36.8818 4.13574 37.1128 4.13378 37.3674C4.13181 37.622 4.27777 37.855 4.50815 37.9643L8.43838 39.8264L8.99797 38.643L6.34204 37.3851L9.08175 36.1403L15.6313 39.2727C15.6502 39.2818 15.6705 39.2851 15.6895 39.2916C15.7111 39.2995 15.732 39.3074 15.7543 39.3132C15.7923 39.3231 15.8309 39.3276 15.8695 39.3303C15.8852 39.3309 15.8996 39.3362 15.9147 39.3362C15.9205 39.3362 15.9258 39.3342 15.931 39.3335C15.9716 39.3322 16.0109 39.325 16.0501 39.3165C16.0672 39.3126 16.0848 39.3119 16.1018 39.3067C16.1189 39.3015 16.1352 39.293 16.1522 39.2864C16.1588 39.2838 16.1653 39.2851 16.1719 39.2825L29.9162 33.392C30.1577 33.2899 30.3135 33.053 30.3135 32.7912V29.9533L37.7806 33.4385L26.1156 38.7406L26.6575 39.9317L39.6165 34.0413C39.8488 33.9359 39.9987 33.7042 40 33.449C40.0013 33.1937 39.8534 32.9607 39.6224 32.8527ZM34.2405 23.6283V17.0834V14.4654V7.38772L38.1674 9.01218V28.539L34.2405 26.9139V23.6283ZM32.9315 26.3726L26.8552 23.858L30.267 23.0059L32.9315 24.0714V26.3726ZM28.35 22.1354V16.9401L29.659 16.6128V21.8082L28.35 22.1354ZM32.9315 22.6616L30.968 21.8762V16.7411L31.9497 17.1338L32.9315 17.5265V22.6616ZM32.9315 16.1167L31.9497 15.724L30.968 15.3313V14.1231L32.9315 14.9085V16.1167ZM25.7321 3.86655L32.9315 6.8458V13.4987L30.968 12.7133V10.5385H29.659V12.6453L25.7321 13.627V3.86655ZM25.7321 14.9766L29.659 13.9948V15.2632L25.7321 16.245V14.9766ZM25.7321 17.5945L27.041 17.2673V22.4627L25.7321 22.7899V17.5945ZM20.4961 1.70018L24.4231 3.32528V14.4654V17.0834V22.8521L20.4961 21.227V1.70018ZM15.8767 23.6695L23.3196 26.8595L11.6277 31.979L2.66248 27.6908L3.66909 27.3845L7.5967 26.1893L9.26959 25.6802L10.2147 25.3928H10.2153L14.1423 24.1977L15.8767 23.6695ZM4.13378 25.8752V24.1002L6.75175 23.2278V25.0787L4.13378 25.8752ZM10.6787 23.8836V22.1367L13.2967 21.2643V23.0864L12.2056 23.4182L10.6787 23.8836ZM1.51581 21.4953L15.2602 17.3125V22.4895L14.6057 22.6885V20.3559C14.6057 20.1458 14.5049 19.9474 14.3341 19.8251C14.1619 19.7014 13.9427 19.6686 13.7444 19.7347L9.8174 21.0437C9.54971 21.1334 9.36972 21.3828 9.36972 21.6648V24.2815L8.06074 24.6801V22.3193C8.06074 22.1092 7.95995 21.9116 7.78912 21.7885C7.61765 21.6655 7.39839 21.6321 7.19942 21.6982L3.27247 23.0072C3.00478 23.0969 2.82479 23.3462 2.82479 23.6283V26.2738L1.51581 26.6717V21.4953ZM15.2602 37.643L9.37234 34.8267H9.37169L1.51581 31.0699V28.594L15.2602 35.167V37.643ZM15.9297 34.0361L13.1867 32.7245L24.9683 27.5664L27.9973 28.8643L15.9297 34.0361ZM29.0045 32.3599L16.5691 37.6894V35.1867L29.0045 29.8571V32.3599Z" fill="#FD7C88"/>
<path d="M14.3339 5.42617C14.1617 5.30312 13.9425 5.26909 13.7442 5.33585L1.9633 9.26281C1.69561 9.35247 1.51562 9.60184 1.51562 9.88392V17.7378C1.51562 17.9479 1.61642 18.1456 1.78724 18.2686C1.90047 18.3504 2.03464 18.3923 2.17012 18.3923C2.23949 18.3923 2.30953 18.3812 2.37694 18.359L14.1578 14.432C14.4255 14.3423 14.6055 14.093 14.6055 13.8109V5.95696C14.6055 5.74687 14.5047 5.54921 14.3339 5.42617ZM13.2965 13.3396L2.82461 16.8301V10.3558L13.2965 6.8654V13.3396Z" fill="#FD7C88"/>
<path d="M10.8696 9.42041L8.53764 11.753L6.95835 11.2262C6.76658 11.1633 6.55649 11.1908 6.38828 11.3027L4.4248 12.6117L5.15064 13.7008L6.84774 12.5692L8.50753 13.1222C8.7425 13.2008 9.00233 13.1386 9.17708 12.9638L11.7951 10.3459L10.8696 9.42041Z" fill="#FD7C88"/>
</g>
<defs>
<clipPath id="clip0">
<rect width="40" height="40" fill="white"/>
</clipPath>
</defs>
</svg>
