<svg xmlns="http://www.w3.org/2000/svg" viewBox="0 0 380.63 181.57"><defs><style>.cls-1{fill:#fff;}.cls-2{fill:none;stroke:#fff;stroke-miterlimit:10;stroke-width:0.4px;}</style></defs><g id="레이어_2" data-name="레이어 2"><g id="레이어_1-2" data-name="레이어 1"><path class="cls-1" d="M12,133.46v22.9H0V85.86H16.4c11,0,17.5,6.1,17.5,17.4v12.8c0,11.3-6.5,17.4-17.5,17.4Zm0-10.9h4.1c3.3,0,5.8-1.7,5.8-6.4v-13c0-4.9-2.5-6.4-5.8-6.4H12Z"/><path class="cls-1" d="M69.2,139.16c0,4.9,1.4,6.3,6,6.3H87.1v10.9H72.5c-10.9,0-15.3-4.6-15.3-16.9V85.86h12Z"/><path class="cls-1" d="M147.6,156.36H135.3l-2.3-13.6H120.8l-2.2,13.6H106.3l12.9-70.5h15.4Zm-25.4-23.5h9.3l-4.8-32.1Z"/><path class="cls-1" d="M168.4,156.36V85.86h15l11.6,52.4V85.86h10.7v70.5H195.2c-2.7,0-4.3-.9-5.8-6.4l-10.2-44.7v51.1Z"/><path class="cls-1" d="M233.67,85.56h38.22v1.82H235.67v31.4h32.58v1.82H235.67v33.21h36.67v1.82H233.67Z"/><path class="cls-1" d="M329.58,85.56h2.28L306.1,128v27.66h-2V128L278.26,85.56h2.27l24.57,40.68Z"/><path class="cls-1" d="M342,85.56h38.22v1.82H344v31.4h32.58v1.82H344v33.21h36.67v1.82H342Z"/><path class="cls-1" d="M23.38,180.85v-8.4H24v9H23l-4-7.24-.57-1.16,0,1.22v7.18H17.8v-9h1l4,7.24Z"/><path class="cls-1" d="M37.39,181.46H31.93v-9h5.45v.6H32.6v3.23H37v.6H32.6v4h4.79Z"/><path class="cls-1" d="M47.26,177.48l-2.59,4h-.78l3-4.49v0L44,172.44h.75l2.47,4h0l2.47-4h.75l-2.84,4.5v0l3,4.49h-.78l-2.59-4Z"/><path class="cls-1" d="M60.62,181.45H60V173H56.72v-.6h7.1v.6h-3.2Z"/><path class="cls-1" d="M84.51,175.1a2.55,2.55,0,0,1-.89,2.1,4,4,0,0,1-2.58.72H79.71v3.53H79v-9h2.18a4.87,4.87,0,0,1,1.3.16,3,3,0,0,1,1,.5,2.37,2.37,0,0,1,.7.84A2.51,2.51,0,0,1,84.51,175.1Zm-.67,0a2,2,0,0,0-.22-1,1.61,1.61,0,0,0-.6-.64,2.68,2.68,0,0,0-.9-.34A5.86,5.86,0,0,0,81,173H79.7v4.28h1.18a7.29,7.29,0,0,0,1.19-.09,2.51,2.51,0,0,0,.93-.35,1.74,1.74,0,0,0,.62-.67A2.55,2.55,0,0,0,83.84,175.1Z"/><path class="cls-1" d="M96.66,180.85v.6h-5v-9h.69v8.4Z"/><path class="cls-1" d="M107,172.43l3.25,9h-.74l-1-2.75h-3.93l-1,2.75h-.75l3.25-9Zm-.23,1.32-.21-.69-.2.69-1.6,4.41h3.6Z"/><path class="cls-1" d="M122.77,180.85l0-1.22v-7.18h.68v9h-1l-4-7.24-.56-1.16v8.4h-.67v-9h1l4,7.24Z"/><path class="cls-1" d="M144.77,172.46v.6h-4.52v3.22h4.34v.57h-4.34v4.55h-.67v-8.94Z"/><path class="cls-1" d="M155.21,181.55a3.79,3.79,0,0,1-1.66-.35,3.3,3.3,0,0,1-1.21-.95,4.17,4.17,0,0,1-.73-1.46,6.37,6.37,0,0,1-.25-1.85,6.49,6.49,0,0,1,.25-1.86,4.12,4.12,0,0,1,.73-1.45,3.44,3.44,0,0,1,1.21-1,3.65,3.65,0,0,1,1.66-.35,3.73,3.73,0,0,1,1.67.35,3.35,3.35,0,0,1,1.21,1,4.25,4.25,0,0,1,.75,1.47,7,7,0,0,1,0,3.7,4.25,4.25,0,0,1-.75,1.45,3.22,3.22,0,0,1-1.21.95A3.87,3.87,0,0,1,155.21,181.55Zm0-.6a3,3,0,0,0,1.38-.3,2.71,2.71,0,0,0,1-.84,3.7,3.7,0,0,0,.61-1.26,5.67,5.67,0,0,0,.2-1.59,5.87,5.87,0,0,0-.2-1.61,3.9,3.9,0,0,0-.61-1.28,2.84,2.84,0,0,0-1-.85,3,3,0,0,0-1.38-.3,3,3,0,0,0-1.37.3,3,3,0,0,0-1,.85,4.09,4.09,0,0,0-.6,1.28,5.87,5.87,0,0,0-.2,1.61,5.67,5.67,0,0,0,.2,1.59,3.88,3.88,0,0,0,.6,1.26,2.82,2.82,0,0,0,1,.84A3,3,0,0,0,155.2,181Z"/><path class="cls-1" d="M170,177.5h0l2.3,3.94h-.84l-2.09-3.79h-2.21v3.79h-.67v-9H169a3.33,3.33,0,0,1,2.26.68A2.33,2.33,0,0,1,172,175a2.58,2.58,0,0,1-.5,1.57A2.81,2.81,0,0,1,170,177.5Zm1.36-2.52a2.05,2.05,0,0,0-.17-.89,1.6,1.6,0,0,0-.49-.6,2.06,2.06,0,0,0-.73-.35,3.54,3.54,0,0,0-1-.11h-1.88v4.05h1.75a2.93,2.93,0,0,0,1.8-.51A1.89,1.89,0,0,0,171.35,175Z"/><path class="cls-1" d="M193.28,180.85v-8.4h.67v9h-1l-4-7.24-.56-1.16v8.4h-.67v-9h1l4,7.24Z"/><path class="cls-1" d="M207.28,181.46h-5.46v-9h5.45v.6h-4.78v3.23h4.44v.6h-4.44v4h4.79Z"/><path class="cls-1" d="M217.16,177.48l-2.59,4h-.78l3-4.49v0l-2.84-4.5h.76l2.47,4h0l2.47-4h.76l-2.85,4.5v0l3,4.49h-.78l-2.59-4Z"/><path class="cls-1" d="M230.51,181.45h-.67V173h-3.23v-.6h7.11v.6h-3.21Z"/><path class="cls-1" d="M251.19,181.45H248.9v-9h2.29a6.19,6.19,0,0,1,2.08.32,3.91,3.91,0,0,1,1.46.91,3.64,3.64,0,0,1,.85,1.4,5.5,5.5,0,0,1,.28,1.81,5.31,5.31,0,0,1-.33,1.93,3.77,3.77,0,0,1-.93,1.43,3.89,3.89,0,0,1-1.47.89A5.6,5.6,0,0,1,251.19,181.45Zm-.13-8.44h-1.49v7.88H251a5.55,5.55,0,0,0,1.75-.26,3.58,3.58,0,0,0,1.32-.76,3.46,3.46,0,0,0,.83-1.26,4.81,4.81,0,0,0,.28-1.72,3.82,3.82,0,0,0-1-2.87A4.24,4.24,0,0,0,251.06,173Z"/><path class="cls-1" d="M264,172.45v9h-.71v-9Z"/><path class="cls-1" d="M275.55,181.45l-2.78-7.2-.39-1.19,0,1.11v7.28h-.65v-9h1l2.9,7.54.26.77.27-.77,2.9-7.54h1v9h-.65v-7.28l0-1.11-.39,1.19-2.78,7.2Z"/><path class="cls-1" d="M293.43,181.46H288v-9h5.45v.6h-4.78v3.23h4.44v.6h-4.44v4h4.79Z"/><path class="cls-1" d="M306.31,180.85l0-1.22v-7.18H307v9h-1l-4-7.24-.56-1.16v8.4h-.67v-9h1l4,7.24Z"/><path class="cls-1" d="M314.45,180.71V180a.08.08,0,0,1,.05-.08.09.09,0,0,1,.1,0,2.66,2.66,0,0,0,1,.73A3.4,3.4,0,0,0,317,181a2.66,2.66,0,0,0,1.69-.5,1.65,1.65,0,0,0,.62-1.38,1.59,1.59,0,0,0-.14-.68,1.77,1.77,0,0,0-.4-.51,2.9,2.9,0,0,0-.59-.4l-.74-.34-.88-.37c-.28-.12-.55-.25-.79-.38a2.89,2.89,0,0,1-.64-.48,2,2,0,0,1-.56-1.46,1.91,1.91,0,0,1,.81-1.61,2.66,2.66,0,0,1,.9-.41,4.3,4.3,0,0,1,1.1-.14,4.43,4.43,0,0,1,1.18.17,3.06,3.06,0,0,1,1,.51v.66s0,.06,0,.07-.06,0-.09,0a4.1,4.1,0,0,0-.92-.58,2.73,2.73,0,0,0-1.12-.23,3.38,3.38,0,0,0-.86.1,2.35,2.35,0,0,0-.7.3,1.53,1.53,0,0,0-.46.49,1.37,1.37,0,0,0-.17.68,1.28,1.28,0,0,0,.15.63,1.48,1.48,0,0,0,.39.48,2.86,2.86,0,0,0,.56.37c.2.11.42.21.63.3l.87.34a4.69,4.69,0,0,1,1.65,1A2.13,2.13,0,0,1,320,179a2.52,2.52,0,0,1-.21,1.05,2.3,2.3,0,0,1-.62.8,2.75,2.75,0,0,1-1,.51,4.14,4.14,0,0,1-1.27.18,4.53,4.53,0,0,1-1.47-.23A2.86,2.86,0,0,1,314.45,180.71Z"/><path class="cls-1" d="M328.34,172.45v9h-.71v-9Z"/><path class="cls-1" d="M339.49,181.55a3.8,3.8,0,0,1-1.67-.35,3.3,3.3,0,0,1-1.21-.95,4.17,4.17,0,0,1-.73-1.46,6.37,6.37,0,0,1-.25-1.85,6.49,6.49,0,0,1,.25-1.86,4.12,4.12,0,0,1,.73-1.45,3.44,3.44,0,0,1,1.21-1,3.67,3.67,0,0,1,1.67-.35,3.71,3.71,0,0,1,1.66.35,3.47,3.47,0,0,1,1.22,1,4.42,4.42,0,0,1,.74,1.47,7,7,0,0,1,0,3.7,4.41,4.41,0,0,1-.74,1.45,3.34,3.34,0,0,1-1.22.95A3.85,3.85,0,0,1,339.49,181.55Zm0-.6a3,3,0,0,0,1.38-.3,2.83,2.83,0,0,0,1-.84,3.68,3.68,0,0,0,.6-1.26,5.67,5.67,0,0,0,.21-1.59,5.86,5.86,0,0,0-.21-1.61,3.88,3.88,0,0,0-.6-1.28,3,3,0,0,0-1-.85,3,3,0,0,0-1.38-.3,2.93,2.93,0,0,0-1.36.3,2.9,2.9,0,0,0-1,.85,4.09,4.09,0,0,0-.6,1.28,5.87,5.87,0,0,0-.2,1.61,5.67,5.67,0,0,0,.2,1.59,3.88,3.88,0,0,0,.6,1.26,2.76,2.76,0,0,0,1,.84A2.93,2.93,0,0,0,339.47,181Z"/><path class="cls-1" d="M356.33,180.85v-8.4H357v9h-1l-4-7.24-.57-1.16v8.4h-.67v-9h1l4,7.24Z"/><line class="cls-2" x1="164.94" y1="0.14" x2="182.85" y2="18.06"/><line class="cls-2" x1="197.57" y1="18.06" x2="215.49" y2="0.14"/><line class="cls-2" x1="197.57" y1="32.78" x2="215.49" y2="50.69"/><line class="cls-2" x1="164.94" y1="50.69" x2="183.2" y2="32.43"/></g></g></svg>