<svg width="36" height="36" viewBox="0 0 36 36" fill="none" xmlns="http://www.w3.org/2000/svg">
<path fill-rule="evenodd" clip-rule="evenodd" d="M34.2 1.8H1.8V34.2H34.2V1.8ZM1.8 0C0.805887 0 0 0.805888 0 1.8V34.2C0 35.1941 0.805888 36 1.8 36H34.2C35.1941 36 36 35.1941 36 34.2V1.8C36 0.805887 35.1941 0 34.2 0H1.8Z" fill="#FD7C88"/>
<path fill-rule="evenodd" clip-rule="evenodd" d="M5 5.875C5 5.39175 5.39175 5 5.875 5H11.125C11.6082 5 12 5.39175 12 5.875C12 6.35825 11.6082 6.75 11.125 6.75H6.75V11.125C6.75 11.6082 6.35825 12 5.875 12C5.39175 12 5 11.6082 5 11.125V5.875Z" fill="#FD7C88"/>
<path fill-rule="evenodd" clip-rule="evenodd" d="M5 31C5 31.5523 5.39175 32 5.875 32H11.125C11.6082 32 12 31.5523 12 31C12 30.4477 11.6082 30 11.125 30H6.75V25C6.75 24.4477 6.35825 24 5.875 24C5.39175 24 5 24.4477 5 25V31Z" fill="#FD7C88"/>
<path fill-rule="evenodd" clip-rule="evenodd" d="M31 5C31.5523 5 32 5.39175 32 5.875L32 11.125C32 11.6082 31.5523 12 31 12C30.4477 12 30 11.6082 30 11.125L30 6.75L25 6.75C24.4477 6.75 24 6.35825 24 5.875C24 5.39175 24.4477 5 25 5L31 5Z" fill="#FD7C88"/>
<path fill-rule="evenodd" clip-rule="evenodd" d="M32 32L32 25C32 24.4477 31.5523 24 31 24C30.4477 24 30 24.4477 30 25L30 30L25 30C24.4477 30 24 30.4477 24 31C24 31.5523 24.4477 32 25 32L32 32Z" fill="#FD7C88"/>
<path fill-rule="evenodd" clip-rule="evenodd" d="M17.5 13C17.7761 13 18 13.3893 18 13.8696V22.1304C18 22.6107 17.7761 23 17.5 23C17.2239 23 17 22.6107 17 22.1304V13.8696C17 13.3893 17.2239 13 17.5 13Z" fill="#FD7C88"/>
<path fill-rule="evenodd" clip-rule="evenodd" d="M23 18C23 18.5523 22.6107 19 22.1304 19L13.8696 19C13.3893 19 13 18.5523 13 18C13 17.4477 13.3893 17 13.8696 17L22.1304 17C22.6107 17 23 17.4477 23 18Z" fill="#FD7C88"/>
</svg>
