<svg width="32" height="32" viewBox="0 0 32 32" fill="none" xmlns="http://www.w3.org/2000/svg">
<path d="M4.6915 0H0.942559C0.424996 0 0.00537109 0.419625 0.00537109 0.93725V4.74869C0.00537109 5.26631 0.424934 5.68594 0.942621 5.68594C1.46025 5.68594 1.87987 5.26631 1.87987 4.74869V1.8745H4.69156C5.20918 1.8745 5.62881 1.45487 5.62881 0.93725C5.62875 0.419625 5.20912 0 4.6915 0Z" fill="#FD7C88"/>
<path d="M31.0583 0H27.3093C26.7917 0 26.3721 0.419625 26.3721 0.93725C26.3721 1.45487 26.7916 1.8745 27.3093 1.8745H30.121V4.74869C30.121 5.26631 30.5406 5.68594 31.0583 5.68594C31.5759 5.68594 31.9955 5.26631 31.9955 4.74869V0.93725C31.9955 0.419625 31.5759 0 31.0583 0Z" fill="#FD7C88"/>
<path d="M4.69082 30.1165H1.87914V27.2423C1.87914 26.7247 1.45951 26.3051 0.941888 26.3051C0.424264 26.3051 0.00463867 26.7247 0.00463867 27.2423V31.0537C0.00463867 31.5714 0.424201 31.991 0.941888 31.991H4.69082C5.20845 31.991 5.62807 31.5714 5.62807 31.0537C5.62807 30.5361 5.20845 30.1165 4.69082 30.1165Z" fill="#FD7C88"/>
<path d="M31.0583 26.3051C30.5406 26.3051 30.121 26.7247 30.121 27.2423V30.1165H27.3093C26.7917 30.1165 26.3721 30.5361 26.3721 31.0537C26.3721 31.5714 26.7917 31.991 27.3093 31.991H31.0583C31.5759 31.991 31.9955 31.5714 31.9955 31.0537V27.2423C31.9955 26.7247 31.5759 26.3051 31.0583 26.3051Z" fill="#FD7C88"/>
<path d="M29.5232 7.68894L16.4699 0.126312C16.1793 -0.0420632 15.8208 -0.0420632 15.5302 0.126312L2.47159 7.68888C2.18372 7.85569 2.00403 8.16625 2.00403 8.49925C2.00403 8.50113 2.00422 8.503 2.00422 8.50481V23.5001C2.00422 23.8363 2.1869 24.1509 2.48109 24.3165L15.5303 31.8738C15.6708 31.9552 15.8381 32 16.0002 32C16.1693 32 16.3347 31.9521 16.47 31.8738L29.5139 24.3164C29.5161 24.3152 29.5182 24.3139 29.5204 24.3127C29.8227 24.0946 29.9857 23.9113 29.9902 23.5114C29.9903 23.5076 29.9906 23.5039 29.9906 23.5002V8.50494C29.9906 8.50306 29.9908 8.50119 29.9908 8.49938C29.9908 8.16606 29.811 7.85544 29.5232 7.68894ZM15.0628 29.4366L4.82372 23.5043L12.7174 18.9775C13.1665 18.72 13.3217 18.1473 13.0642 17.6983C12.8067 17.2492 12.234 17.094 11.7849 17.3515L3.87853 21.8823V10.1193L15.0628 16.5424V29.4366ZM16.0001 14.9191L4.82234 8.49656L16.0001 2.02044L27.1778 8.49656L16.0001 14.9191ZM28.1222 21.8823L20.2153 17.3514C19.7663 17.094 19.1935 17.2491 18.936 17.6982C18.6785 18.1473 18.8337 18.7199 19.2828 18.9774L27.1765 23.5042L16.9373 29.4365V16.5424L28.1222 10.1193V21.8823H28.1222Z" fill="#FD7C88"/>
</svg>
